<?xml version="1.0" encoding="UTF-8" standalone="no"?>
<svg
   xmlns:stEvt="http://ns.adobe.com/xap/1.0/sType/ResourceEvent#"
   xmlns:xmpMM="http://ns.adobe.com/xap/1.0/mm/"
   xmlns:xmpG="http://ns.adobe.com/xap/1.0/g/"
   xmlns:stDim="http://ns.adobe.com/xap/1.0/sType/Dimensions#"
   xmlns:xmpTPg="http://ns.adobe.com/xap/1.0/t/pg/"
   xmlns:xmpGImg="http://ns.adobe.com/xap/1.0/g/img/"
   xmlns:xmp="http://ns.adobe.com/xap/1.0/"
   xmlns:x="adobe:ns:meta/"
   xmlns:dc="http://purl.org/dc/elements/1.1/"
   xmlns:cc="http://creativecommons.org/ns#"
   xmlns:rdf="http://www.w3.org/1999/02/22-rdf-syntax-ns#"
   xmlns:svg="http://www.w3.org/2000/svg"
   xmlns="http://www.w3.org/2000/svg"
   xmlns:sodipodi="http://sodipodi.sourceforge.net/DTD/sodipodi-0.dtd"
   xmlns:inkscape="http://www.inkscape.org/namespaces/inkscape"
   sodipodi:docname="wreath.svg"
   xml:space="preserve"
   viewBox="0 0 265.66666 248.66667"
   height="248.66667"
   width="265.66666"
   y="0px"
   x="0px"
   inkscape:version="1.0 (4035a4fb49, 2020-05-01)"
   id="svg18"
   version="1.1"><defs
   id="defs66"><pattern
     id="EMFhbasepattern"
     patternUnits="userSpaceOnUse"
     width="6"
     height="6"
     x="0"
     y="0" /><pattern
     y="0"
     x="0"
     height="6"
     width="6"
     patternUnits="userSpaceOnUse"
     id="EMFhbasepattern-4" /></defs>
<style
   id="style2"
   type="text/css">
	.st0{fill:#60615A;}
	.st1{display:none;fill-rule:evenodd;clip-rule:evenodd;fill:#3D6B3C;stroke:#FF0000;}
	.st2{display:none;opacity:0.56;fill-rule:evenodd;clip-rule:evenodd;fill:#7D3333;enable-background:new    ;}
	.st3{display:none;fill-rule:evenodd;clip-rule:evenodd;fill:#B80F0F;}
	.st4{display:none;fill:#58595B;}
	.st5{fill:none;stroke:#000000;}
</style>
<metadata
   id="metadata4"><?xpacket begin="﻿" id="W5M0MpCehiHzreSzNTczkc9d"?>
<x:xmpmeta
   x:xmptk="Adobe XMP Core 9.1-c001 79.675d0f7, 2023/06/11-19:21:16        ">
   
<metadata><rdf:RDF>
      <rdf:Description
   rdf:about="">
         <xmp:CreatorTool>Adobe Illustrator 28.0 (Windows)</xmp:CreatorTool>
         <xmp:CreateDate>2023-11-25T17:51:02-08:00</xmp:CreateDate>
         <xmp:Thumbnails>
            <rdf:Alt>
               <rdf:li
   rdf:parseType="Resource">
                  <xmpGImg:width>256</xmpGImg:width>
                  <xmpGImg:height>236</xmpGImg:height>
                  <xmpGImg:format>JPEG</xmpGImg:format>
                  <xmpGImg:image>/9j/4AAQSkZJRgABAgEASABIAAD/7QAsUGhvdG9zaG9wIDMuMAA4QklNA+0AAAAAABAASAAAAAEA
AQBIAAAAAQAB/+4ADkFkb2JlAGTAAAAAAf/bAIQABgQEBAUEBgUFBgkGBQYJCwgGBggLDAoKCwoK
DBAMDAwMDAwQDA4PEA8ODBMTFBQTExwbGxscHx8fHx8fHx8fHwEHBwcNDA0YEBAYGhURFRofHx8f
Hx8fHx8fHx8fHx8fHx8fHx8fHx8fHx8fHx8fHx8fHx8fHx8fHx8fHx8fHx8f/8AAEQgA7AEAAwER
AAIRAQMRAf/EAaIAAAAHAQEBAQEAAAAAAAAAAAQFAwIGAQAHCAkKCwEAAgIDAQEBAQEAAAAAAAAA
AQACAwQFBgcICQoLEAACAQMDAgQCBgcDBAIGAnMBAgMRBAAFIRIxQVEGE2EicYEUMpGhBxWxQiPB
UtHhMxZi8CRygvElQzRTkqKyY3PCNUQnk6OzNhdUZHTD0uIIJoMJChgZhJRFRqS0VtNVKBry4/PE
1OT0ZXWFlaW1xdXl9WZ2hpamtsbW5vY3R1dnd4eXp7fH1+f3OEhYaHiImKi4yNjo+Ck5SVlpeYmZ
qbnJ2en5KjpKWmp6ipqqusra6voRAAICAQIDBQUEBQYECAMDbQEAAhEDBCESMUEFURNhIgZxgZEy
obHwFMHR4SNCFVJicvEzJDRDghaSUyWiY7LCB3PSNeJEgxdUkwgJChgZJjZFGidkdFU38qOzwygp
0+PzhJSktMTU5PRldYWVpbXF1eX1RlZmdoaWprbG1ub2R1dnd4eXp7fH1+f3OEhYaHiImKi4yNjo
+DlJWWl5iZmpucnZ6fkqOkpaanqKmqq6ytrq+v/aAAwDAQACEQMRAD8A9U4q7FXYq7FXYq7FXYq7
FXYq7FUk8x+d/KPltV/TmrW1jJJ/c27uDPJ7RQLylkPsqnFUi/5WD5i1I08seTtRvIj0vtVK6PbH
wIWcPdn/AKR8Vb/Rn5v6jQ3euaToMfUxabZy30vy+sXckSf9O+Kt/wDKtLu4o2recfMN+5+2I7uP
T0+hdPitSP8AgsVb/wCVN/l829zY3N8x+017qGoXdT7+vPIPfFXf8qV/KY7v5U02Vu8ksCyOfm78
mP0nFXf8qU/KYbp5V06Fh+3DCIm/4KPi344q1/ypvyFGK2dteae43R7HUtRtSp6gqIbhF2O/TFXH
8t9Stvi0jzpr9i6/YSeeDUY/D4hfQ3Dtt/l1+nFWmsvzi04/6NqejeYIRvwvbafTZz7etbvdRH/k
QMVaP5j6rphA80+U9T0uMfavrFRq9oB3Jaz5XKj3e3XFWQ+XfOHlbzJC02harbaise0yQSK0kZrS
ksf24z7MAcVTfFXYq7FXYq7FXYq7FXYq7FXYq7FXYq7FXYq7FXYq7FXYqxLWvzK0a01CXRtGgm8y
eYotpNJ0wLIYSdh9anYrBbCv+/XB8AcVQA8u/mN5jHPzFrQ8uae9D+htAb/SKdeM+pSrzr4+hHH/
AKx64qn3lvyJ5Q8tl30bS4ba5k/vr1gZbqXan725lLzP0/ac4qn2KuxV2KuxV2KuxV2KuxV2KuxV
jvmP8vfJ/mGdbrUtNT9Ix/3OqW5e2vYz24XUBjmWnhypiqSnR/zN8tDloupJ5t0xKn9F6ywgv1HW
kOoRLwk69J4q/wDFmKpj5c/Mny/rGoDR7lZ9E8xgEtoWpp9XuSB1aHcx3CbfahdhirK8VdirsVdi
rsVdirsVdirsVdirsVdirsVdiqTeafN+g+WLFLvV7j0zM4is7WNWlubmY/Zht4UBeR2PZR86DFWL
LpHnrzrSTXpZfKvlp900KzlpqdzGR0vbuM/uFbvFAeXjJ2xVmWiaBoXl/TU0/R7KDTrCLcQwIEWv
dmp9pj3Ztz3xVjHk/wA32nmLzr5hNg3qWFpb2lvFLvRzG85Z19iZSPcAYFZvhVTW5ga5e2VwZ41W
SSMdVVywUn5lDT5YqqYq7FXYq7FXYq7FXYq7FVN7m3S4jt2kAnlV3ijPVlj4hiPlzGKqmKsI84+c
LPy75z8vG/b07G7t7y3mmPRDI8BV29g0dCfA4FZF5g8seXfM2nfUdasYdQtGIeMSD4kbqJIpFIeN
x2dGB98KsTaDz95Io9q9x5z8rp9u1lIbW7VO5ikPFb1F3+F6S+DP0xVlvlvzPoPmTTF1LRbxLy1L
GNytVeORftRSxsA8ci90cAjFU0xV2KuxV2KuxV2KuxV2KuxV2KuxViHmvz3NZ6ivlvy1aprHm6dQ
/wBULFbezifpc38q19KPf4VHxv0Udwqv8qeQINLvn13Wrttd82zrwm1i4UKIkPWCyh3W2h/yV3bq
xY4q1+Y3mq00XTba29QDUtQuYI7OIH4qLMjPIadAoH30wFUi/PnW9S07ypBbWbGOPUZjBdSr19MI
W9Ovbn39hiVYp+UF2nlbylr/AJt1GJvqjmGG0UbGV4ywISvUF5FFe1D4HAFQFx+df5ga3fR2OiwQ
2kty4jt4oI/WlJbxaXkv08RjavafKGgXGjaSsd9cNe6rcn1tSvHJZpJiAKAn9lAAqjwGSVO8Vdir
sVdirsVdirsVdiqSeb/L8utaS0VpcNZ6pbt6+m3qEq0U6ggbj9lwSrexxV4tB+dP5haFfSafrUMN
3NbOY7iKeP0pQV7BouK/I8TXI2qP/N28TzX5P0HzZp0LC1iaaG8Tq0TSFAA5HYPGRX3HjiVZV+Q2
uajqPlWe1vGMkenTCG1kbr6ZQMEr34dvY0whU6/LbzXZaxY3lkZR+k7G7uvrUDH4islw7rIvivx0
9j9GIVrzN+X7z6o3mXyrdrofmziBLcheVrfInSG/gFBKtNhIP3ifsnthVEeUPPcWs3U+i6tanRvN
dioa+0eVuQZCaC4tZaATwMRsy7jowU4qyrFXYq7FXYq7FXYq7FXYq7FWFea/NWrXeqv5P8nPG3mI
xq+panIvqW+k28teMsy9HnkAPow9/tNRBuqhdV8t6N5J/LrVDYu5vFC3lxqtwxkurq/V1aOe4lO7
u0qr7AbCg2xKsltPNFnP5PHmYLW2Fk17JGvUenGXdPmpUrir5tTWdY83efLC7vHL3V3eQJHGteES
eoKIg7Ko/qcgr378xofL1zZWFvrSvdoLn1bXSIATPdzqjIiJxIYKvqVY/eadZFWP6z5e0Saxgbz9
qUOl21B+jdAtZlht7ZFFAPhHKZwNmYDiOg2xVHeTLX8oNHn9bQ76yN844iaa5DTUbaiiRhT/AGIx
FKz9WVlDKQVIqCNwQcKtkhQSTQDck9AMVYTe/m35YN3JYeX47rzVqUZ4y22iRfWY428JrolLWL35
yg+2KrBqn5x6j8VpomkaBDTY6ndy309e1YbNI4h70nOKr/8AD/5szfHP5w063J39K00Y8RXtynvJ
iQO3TFWm0L83rer23m3S7wjpFe6PIoO1N3t72M0/2OKrDrn5uaYSdQ8tafrluNzLo18YZwo/5dr5
I0J9hcYqitI/NbyjfX8elXsk+g61KSI9K1mF7GdyDT900n7qb/nk7YqzDFWmZVUsxAUCpJ2AAxVg
PnO3/KLWZxLrt9ZfXY14CaK5CzBR+ywjY1p25D5YDSoHRfL+hw2E7eQNTi1KCh/SOg3contrlGFC
rKw5QuRsHpQ96jFU9/LeLy/bWmoWujq9mPrHq3ejTgie0nZFR1YsSWRuAKHp4HsEK8Am1XV/Kvnu
+u7RzFeWd7OrKdldfUNUYd1cf1GRV9J3nmu1t/Jh8zsnGA2SXscTHcmWMNHHXxZmC5NWLaX5V07z
l5A0S9a5kttcgWS807XoCPrNrfSuxndCdmRpCwkjb4WXYjpQBUx8l+dNQuNQl8qea4o7HzhYx+oR
HUW2oWwNBeWZPVT+2n2o22PY4VZpirsVdirsVdirsVdirDvPfmzU7S5tPK/lhUm836wrNblxzisb
VTxl1C5H8kZ2RT/eP8I70VVPy10vQdK0OWw00SfX4rh/07Lc73c1+d5prh9+bSfaVh8PGnHbbFWD
f85C+Y2SHT/L0LU9X/TLsD+VSUiX5E8j9AyJVH/k1fHUPy21PTZUa4+qNcQpAu7NHNHzCLUjdmZx
hCteV/I+mfl/bQanfIdV813v7nTrGKm0rL8SRV6UH95Kdgv4tKzLS/LmpWwn1m7eC881XShfXl5C
3t0J/uIAAWEaA1Pdz1I7KvKvNH5N/mLqeuy3k13b6k1y1Wu2kMYQdgY2BKqvQBK4KVm/kz8lvLei
ItxqiJq+o9S0q1gQ+CRGob/Wb8MICpt5i83eXvKBg0jTNPN7r2ocn0/y9pkaLPMejSuBxSGIftSy
EKPc7YVSyP8AL/XfNDfWvzEvhcWrGsXlPTnki02MdhcyDhLet486R16JirOrDT7DT7SOzsLaKzs4
RxhtoEWKNB4KiAKPoxVXxV2KuxV2KoLWNE0bW7CTT9YsYNQsZf7y2uY1ljJHQ8XBFR2OKsJfyj5w
8nVuPI922q6Mm8nlHVJmYKoG40++flJCdto5eUfhwxVPPLvmfyt52spovq4a7sXC6louowhbq0mp
ss0MgND14uKq37JOKpD50/JXy7ratc6Uq6RqNNvSUC3c/wCXEtOP+sv0g4CFYT5X/Jz8xdL16K8g
u7fTmtmqt4JDIHXuBGBVlbuHpgpXq2reWr+9W31a3khsvNVmpWK7i5GCVK19GZTQtE/galD9k+JV
hPmTyRpn5gR3N/ar+iPN9hSHU7GShUyKvwByOoYD4JV6r8tmlb/OS9bT/wAtdJ0uOJrb60beJ7dq
VSOCLnwalRVXVcSqF/5x68yGS2v/AC7M3xQn65aA9eDELKvyDcT9JwBWZ/mdo+malpNorTSWnmGK
4VvLN/aqrXUN8ehjDbGMrUTK3wmOte2SVW8h+cLrWobvStagWx82aKywa1YoSUJYViurckAtBcKO
SGm26ndcVZXirsVdirsVdiqSecvNdl5W8v3GrXMb3DqVhs7KLea5upTwgt4hvV5HIA8OvQYqlv5f
eU77SLa61fXXW58264y3GtXCbpGQKRWkBPSC3U8U8TVupxVgfnXzm/lP83RewgmzntrePVoF/wB2
L8QD07ui04n6OhyJO6pf+fWjPPd6b5ps3Fxpl7AluJU3Ab4pIyPaRG2+WJVmf5b6TH5G8gzajrQa
Ce4Y3dzER8aggJDCF/nO238zUwhWP+cfOWoeWQNTukRvOerxVt4HAdNMsanhGoPWRj9o92r2AqLV
55a61+YPnDV4tNj1K7urm5baIStHCoG7OyJxRVUddsCvevK35YeV9Es4hPaRalqVA09/dIJXLjug
flwA7U+nJUqzzt5x1O2voPK3lWFL3zfqEZkT1Km2sLavFr28I6IDsidZG2HfCqP8neR9N8tRXEwl
k1HXNQYS6vrdzQ3N1L7kbJGvSOJfhQdPEqsjxV2KuxV2KuxV2KuxV2KsU84+RE1i5g1vSLk6P5ts
FIsNXjFQ6Vqba7jBHr27kbodx1Ug4qv8k+c5NcW60zVrUaX5q0ohNW0rlzA5f3dxAxp6lvMN0f5q
fiBxVC+a/wArfLOtWc31S2j0zVCC0N9aqIjzO/7xU4hw3eu+CleD3Ou/mD5R1aXTpNTu7W5tWoYm
ld4mHZ1SSqMrdQaZFXonk/zhqHmtTqNsscfnbRo+RRaJHqNlUc4XHZq9D0VqEbE0IVPvzG0yPz15
Ai1HRw0lxat9ZigIpJVQUngZezr4eIwlWH/kJoskN5qXmi7YQabZwPb+o2wLfDJISfCNF3+eAKmP
kvzo/mz83WvJKiygtbiPSYW/YWq1enZ3Wpb7u2IO6sz/ADB8tanJJa+bvLMYPmzQ1b0oa8Rf2THl
Pp8p8JKcoifsSAHbfJKyDyx5j0vzLoFlrmluXsr6MSRhhR0YHi8ci/svG4KOOxBGKppirsVdirsV
eaabeWfm78wv05eyqvl3y7cS6b5XikNI7zVVBS9u1rQP6NDBD13EjDFXpeKvl784p2m/MbVydghh
jUeywIPxO+RKvSfyXlHmDygmn6jWSPQ75JbboQQB6katUHZHJP3YQrK4R/ifzQ1wx56F5flKWy9V
uNRUfHJ7rbg8V/y6ntirGfO3lH8tlvJtQ83a1L+lJ25sElUOE6JHHbosjBFFANifE4lWQ/l35e8v
6VbyvpGjXdkkygm/vwgmmFdgF5GRV70KL8sQqP8APfm4+WtIje1t/r+t6jMtloemA0Nzdyg8FJ/Z
jQAvI52VAThVb5F8nDy5YTyXlx+kPMOqSC617VmFGuLilKKP2Yoh8ESdFX3rirJcVdirsVdirsVd
irsVdirsVdirEPPvlK/vzbeYvLjJb+cdGDNp0zHjHcwk1lsLk94ZqbV+w9HHTFU28oeadP8ANGg2
+r2QaISco7m0lFJre4iYpNbzL+y8Tgqfv6Yqkv5j+WdC1i2ik1TSbu8WFWpfad6ZuIR1NUYguvsF
b5YCrG/I3k78vBfQ6j5S1+c6rbkkJO8bOVOzpLbNHC5UrUbU8QcQrKbtf8MeZlv0HHQ9elWK/UfZ
gv2osU/ss32HP83E98VYt+c8yeX/ACfJp+nco01y+aS46AKCPUkVaU+24B+/Eq81/J2dofzG0gjc
OZo2Hs0Dj8DvgCvqHJK80tby08ofmNLFayq3ljzfdGOYIQY7LzBwDFSRsovY1qRX+9X/AC8Vel4q
7FXYqw/8z9d1Cw0GHSdGf0/MPmS4XSdIcbmJ5lJmuTTeltAry/MAd8VTSz8l+XrTylb+VI7Yfoe2
t1to4j9qiDZ+X+/OXxcuvLfFXnPkP81ptP1abyr5qnMhtp3tLbVX68o3KcZyfGmz/wDBeOAFV350
/lpc37y+adKBkuEjH6RtR9pkjWglTxKoAGHgNsSFX+RLTUPLn5aQ/VRx13zPcBdOHUp66hY5D/kx
xI02IVinm78z7ywhHlfynKbPSdOBt2vkP7+4dSfUkD/shnqaruetd6YCVW/kp5UbXfM76xfqZrTT
CJWaT4vUuW/uwSevGhc+4HjiFfRWSV595Ki/xZ5ovPPt0OenWxm0zyhG26i1V+N1fLUfau5Eojf7
6UfzHFXoOKuxV2KuxV2KuxV2KuxV2KuxV2KuxV59qSjyZ+YEGrRfu/LnnCZLPVkG0cGr8QtpdUHT
60q+hIf5hGT1xV6Dir57/O7ym+ieYotfsAYbbUmLM0fw+ndLu1COnP7fzrkSq3yd+aN1exHyv5tk
+u6RqK/Vvrsh/fwl9kdnP2grUNTuOtdqYgqyfz1aX+v/AJa3EN0Oeu+VbnjqFOrrEvEyiv7MkLrL
hKtfkt+WlzYPF5p1UGO4eM/o61P2lSRaGV/AshIUeB3xAVrzx+akmp61b+U/LE5jW6uY7S71WM/E
TI4QrAfau7/d44kqz7zD5F0fVvJdx5WiT6pbNFxs5ox8dvPGecNwh6+pHKBJXueuFVn5d+Z7nzD5
YhuNQQQ63YySafrlsvSO/tG9OcD/ACXI9RP8lhirJsVdirAdF/52P809W1lvj07ylD+hdMNKqb65
VJ9QkHuiejF/wWKs+xV8pfmbZ/VPP2uRUpyuWmp/xnAlr/w+QKvZfyP8zXet+V57C/YzS6Y6wLI2
5aB1qitXrxow+VMkFWa5LBbNq1xa1Sz8qab+iNFQVYnULqIL8FPiLqhij+k4q8u0n8mvP+oPHz08
WUL0rNdSInEe6AtJ/wALgpXv3kjyxp3lrQYtJs5FmeJibycUq87AFywBNNqADsKZIKlX5q6jeroF
v5e0yVodY81XKaRZyoQHijlVnu7gf8YbWORwf5qYqyrTNNstL02102xjENlZQx29tEOiRRKERfoU
YqicVdirsVdirsVdirsVdirsVdirsVdiqUebvLdp5m8tajoV2SkV/C0QlH2opPtRTJ/lRSBXX3GK
oH8ufMd3r/lKzutQCprNsZLDWol/Yv7NzBcim1A0iFl/ySMVRXnLy3p3mPQZtJvpBCJyv1ebbkkw
3RlBpU+3cVGKvANV/Jbz/YPJ6Vit9ClaTW0iGo9kYpJ/wuRpXp+kXEV2dIvL0MbbzNYnQ9fiaqFb
63jYLzBHJXakse/thVf+eHma70TyvBYWDGGXU3aBpF2KwItXVadOVVHyriVePflZZm7/ADA0WOle
E/rH/nijSf8AGmRCvqnJqwFAPLf5uFB8OmeeLUuF/ZXVtNT4vYGezp8/SxVn2Kpf5h1q10PQdR1q
7/3m022mu5hWlUhQuQD4njirG/y48u6rpv5dadbSXBtddvkbUtSuSiyH67fSG6nDq32gHkKdQaDq
MVQifmlHo+uv5f8AOEK6feLRodRg5NaTI/2XoavHXpvUAg1OC1Qv5kflZb+cDHrWj3UceomNRyJ5
QXEYFUPNa0NOjb1GJCpf+S+nXPlvSvMz6vG1tNZTAXULUqqwQmTl4EMr1BrQ4hWXeVI7PT/Jtvqm
tGKJ7gtq19NNSiTXLGWtW6FA4Qd+2KsIk/MjUPO/m208s6DJJp+izO31u9T4bmWGNS78W6xKwWgp
8X6sbV61p+nWWnWkdnZQrBbRCiRoKD3J7knuTucKsPh/3M/m/cyN8Vp5S0xIYgen17Vm9SUindLa
3jG/+/DirOMVdirsVdirsVdirsVdirsVdirsVdirsVdirBvL4/Q/5peY9GB42uu2tvr9pGNgJ46W
N9T58Ldz7tirMr+wstQtJbO9hS4tZhxkikFVI6/eDuD2xV5N/wArHv8AyN5uuvLWtvLf6HGytZXj
kvcxQyqGUMx3lVK8TX4tvowWrOPNUVrq3ky6v9GeOWRFXU7C4ipRp7YiVGBH7TenxP3Yqw784tNu
/NOk+V5NHjM81/KTbQgipWeES8iTsAqpUnEqmn5cfldaeTRLrGq3Uc2pGIq0g+GC3j6vRnpWtN2N
NsQFV5PzTg1XXE8v+UYV1G/fl6l/NyW0iRPtP8PxyAe1AexxtVv5o6dqdt5E/TRnN/rHla5h16GU
RrHy+ptyuI0ReiyWrSx9Sd+uFWeWtzBdW0V1buJLedFlhkHRkcclYfMHFWE/nAPrnl7TvLo/6aXV
rHTJR1P1f1frN1t721tIMVZ1iryD/nIXy/62m6frsS/HaubW4IG/py/EhJ8FcEf7LAVYD+W35kan
5Y1KG2nmaXQppAt1bOSRGGNDLH/KR1IHX8cAKvdPP0MP+HbqC3QLc63La6e0iUBcXEqw7n2jZsJV
5J+efmu7ufMB8uQP6emaYsfOFNleZkD1anUIrBQO2+Aqiv8AnHjSTNrupaoy1S0t1gQkbc52rt7h
Yj9+IV71klYR+VY+tWfmHXjRjrWvahLHJ1LQ2cv6Og69vTsgQPfFWb4q7FXYq7FXYq7FXYq7FXYq
7FXYq7FXYq7FWEed1+ped/IutDYG+utHnI6+nf2jyr9Hr2ceKs3xV4R/zkRpRj1nS9VVfguYGt3I
/mhfkK/MS/hkSqC/IvzZeWnmFfLs0hk03UVkMcLbqkyIX5LXpyVSpHfbEK9a/L+GBdAitplV7jQ7
i709JWALIsUzKvEnpWLhhCvDvzJ/MrU/M+ozWkEph0KGQrbW6Ej1QpoJZf5ieoHQfPfASrO/+ced
AEWn6jrsq/HcOLS3Yjf046PIR7MxUf7HCFet3VrBd2s1rcIJILhGilQ9GRwVYH5g4VYd+TVzM35e
6fp9zIZLzQnuNEuiftc9Mne0HL/WSJW+nFVLzXJFN+aPky2lcJDp1tq2rzMx4qpSOGyjZidv+P5x
1xVnEM8E6CSGRZUPR0IYePUYqg9e0Wy1vR7rSr1S1tdpwenUGtVYe6sARir568y/kn5x0gyzWka6
pZR1YS25pLxHdoW+KvsvLI0r1o3S6jY+QIg4kFzNFdO9OptrGSQ122+On04VYL5g/LHWfN35ia7c
W00dtpkU8cct7ICav6EZZI0FCxWu+4HvgpWcfl9Z6dplxPoXlwCXTNMc/pjVZPia4vGWnpR02Hpi
nI9tl7k4QrOppY4YnlkPGONS7tuaBRUnbCrDvyZhkj/Kvyu8opLdWEV5J3q92PrDHqeplrvv44qz
PFXYq7FXYq7FXYq7FXYq7FXYq7FXYq7FXYqwn83B6flzTb8CradruiXCjueWpwQsB81mIxVm2KsE
8/2um6pPF5e8x0h0/U3U6JqkezQ3aihhkrtV6/CejAleoBwFWC6D+WOteT/zB0O6uZY7rS5bh4o7
yOq0doX4rIhqVLdqEj3wUrO2uBYQfmBCXEaQlrtHJGxuLBDXr/Ohwq8j8ufkr5z1cxS3MK6ZZyUY
y3J/ecT4Qir19m44KV9DeX9CsdC0a10mxBFtapxUtTkxJqztSm7MSTklRss0MKF5XWNB1ZyFH3nF
WD/l3LFB5p896ZC6vbrqsOpW7KQVKahYwu9CD09eKX6cVXiNLn86rkOgdLTyzCpDAFaXl/LUb7mv
1TFUF+YH5YWl1YTap5Yh/RuvW4MiizJhE4G5TilAH/lI6nr7AhXk+ifnD590h1R7438KGjQXq+qT
85Npf+GwWr2f8vfzR0rzcHtTF9S1aJeb2rNyV1HVomoK07gio98IKo/U7S3h83eWYoEWGGMahIIo
wFTk0a1PEbbmQn54qx784vPg8uaT+itNYR6vqQLM6UBihJo0m37T04qfme2JKqf/ADj84byTcgCh
TUJQx8T6URr+OIV6Fq3/AByr3/jBL/xA4VY/+U//AJKzyb/2w9N/6g48VZVirsVdirsVdirsVdir
sVdirsVdirsVdirsVYV+cv8A5LvUP+M9h/1HwYqzXFXl/wDzkKyjydYivxnUYyB3oIJq/rGAqify
e8+DzJpJ0rU2Emr6aFbm+5miU0SXf9pDQMfke+IKp7pkUFx5280W08McsJh012R1DBm4zfaB2NOA
piqD/ML80dL8ohLURG91WZeaWqtxVFOwaRqGlewAqfbElXjOtfnF591d+Ed59QiY0WGxX0zU9Pj+
KWv+ywWr1nyB+WVra6fFqXmeP9Ka7cASOL0+uIAdwgEnIcv5ie/T3ICovRUSz/OHzJaxUWO70PR7
r0xsFMdxfwbL0+yq7/LCq+y/8nRrP/gOaX/1HajirNcVeHfnD+Vt9+kJPMOg2zXENyS+oWkK8nST
vKijcq3VqdDv0O0SFeZaJe6r5f1q01WOKWKWxmV25Ky1ANHRqj9oVU4FfS2pXkVx5p8qXVuRLbXU
d76coOxDwJIpHjULklfPH5kajc3/AJ61uWduTRXctug7BLdjEgH0JkSr1v8A5x4Rx5V1FyCFa+IU
+NIo6/ryQV6lNFHNE8Ug5RyKUddxUMKEbYVYb+TE0kn5VeV0lNZbWwis5PZrT/R2HQdDFTFWaYq7
FXYq7FXYq7FXYq7FXYq7FXYq7FXYq7FWE/m9+98r2VgBVtR1vRbZa9KHVLeRqjuOEZqPDFWbYq8p
/wCciBJ/hnTCF/di9ozeDGJ+I+nfAVeTfltqV1p/nnRZbduJmu4raQdjHcOInB+hq/PIhX0Jp9zb
WnnDzbfTyqlvb22nmdjsEEcczsST/ktklfNmuX2qeYNau9WkillkvZWdaKzUWtEQEDoqgKPlkVeo
fk9+Vt6t9H5i162aBLc8tPs5lKu0g6Suh3AX9mvffwqQFe3ZJWFR/wDk6bj/AMBuD/qOmxVZHVfz
o1GMOUa88s2nB1pyX6vfXQLLyDKf96R1H68Vd5nH5laLaTalo9/BrUEILyWF1bKswQbko0Bj5kDt
Qe1emBWJaP8A85FWzFU1nSXj/mmtHDj/AJFycf8AieC1ej+X/OvlTzLGU0y+iuJGU+paP8EvHvWJ
6EjxI2yVql2v6dY6PdeVpLGEQW1vqpiES14IL2GaMhQa8V5uKKNh2pgV5t5r/K3Uta/NS9tLRlhs
rtE1Ge5bcRxyko+3dmlR+I/hgpXp8cem+S9H0vQdJi9S6u5Rb2UTn4pJD8c08pH7KLV2p7AU2wqy
nCrB/wAqSbS28x6A1FbRNev44ou6297INRg+jheUHyxVnGKuxV2KuxV2KuxV2KuxV2KuxV2KuxV2
KuxVg/nz/TvOHkTRRQq2pXGrTilT6Wm2kgU/9JFzDirOMVYrNFpfnTStV8v6vF6d1ZTehdxIfijc
fHBcRE9nQhlr7qa74FeY+Ufys1PR/wA0bW0vGWazsUbUYbpQQJURuEex+ywkZeS4KV6Tomm2Os6j
5qe+iFxaS6nFD6LE8G+pQQgclBoy+pWqnY9xhVMfMPnbyp5ajCanfRwSBRwtE+OWnakaVYD3O2G1
edax/wA5FWakpo+kvL4TXbiMf8i4+df+CGRtWVeWf+Vma3axajq17b6JbzAPFZW1sJJih6c2naQI
T1pQn5dMKt6WjSfnHrJLNKLDy9pcDyPxB5z3d85JChRVhEp2FNu2FXa2TZ/m/wCV7rfhqelappz9
ac4pLW7i70rxjlxVnGKvnb85/wAv/wBB6p+mtPippOoOTIij4Ybg1JX2V+q/SPDIkK85trm4tbiO
5tpGhuIWDxSoSrKw3BBHTAr3yz83zea/ytudSYA6zockNzc8dqyWciT+qoHTnGh+muSV6Xbx2csn
6RhVTJcxRr646tEpZ4x8h6rEfPCrxWLz7Hqv53WFwHDaZbyPp1l4H1EaP1B/ryt1/lpkb3V7lklY
JGRov5xzRkFbTzfpayo3Y32ktwcexe1uE/5FnFWd4q7FXYq7FXYq7FXYq7FXYq7FXYq7FXYq7FWC
aIw1n82df1QfFaeW7KDQ7Zuo+tXJF7e0P+Sn1ZT9OKs7xV4beee49I/O+8uA9NNmePTr6p+GioqF
z2Hpyj7q+ORvdXtcsVokv16VVWWGJ09c9VjJDMPl8AOSV5ncecJPK/5XprCgDV9ennubVWFaPeSv
KJKeCREH508cFq8Dubm4uriS5uZGmuJmLyyuSzMx3JJPXIq9H/Jf8v8A9Oan+m9QjrpWnuPTRh8M
043C+6p1b3oPHCAr6IySsH8k0u/P3n7Ul3iS8sdLR9tzZ2KTOOn7L3jDFVv5q0sl8r+YvsjRNds2
nl/lt7/lp01f8kC8DH5YqzrFULqulWGradPp2oQie0uV4Sxt3HUEEdCDuCOmKvGdV/5x2vRcsdJ1
WJrYmqJdKyuo8C0YYN8+IyNKmfkfyJ5j8l6pPbalGuo6HrkYs7mSz5uYpDURvLGVDcPiZSw2FanC
AqbN5hutJ/KTUuTn9I6IsukSP3WVJBbxOP8AYSI+Kvne1uZrW5huYW4zQOskbeDIeQP3jIq+stY8
22Gl+Um8xzj9x9XSeGKtC7yqDHGP9ZmA9uuTViPmnR9Z/wCVe2HmSGt35o0OaPzIoHWVwpN1apSp
4vaSSQoo/wAnFXoOlanY6rplpqdhKJ7G+hS4tZl6PFKodGHzBxVFYq7FXYq7FXYq7FXYq7FXYq7F
XYq7FUq81eYrHy35c1HXb6pttOgeZkH2nZR8Eaf5Uj0Rfc4qxPRPLWuaL+WXqSS+n5rrLruoSKTx
fUJma5niYV3j+Iw0/lpirKNG806fqvliPzDCaWrQNPKhIqhjB9RD7qVIxV8l313Ne3txeTGs1zI8
0h8WkYsfxOQV9Dx+Y7vUvyi0942P6T1mOPSIWNatNJIbV3/4FHf6MkqT+dfIfmPzlf21lpsaadoW
gxmytZLznGZXWiu8aKpbh8CqGOxpUYkKlulf847XpuVOrarEtsDV0tVZnYeAaQKF+fE4KV7NpWlW
Gk6dBp2nwiC0tl4RRr2HUkk9STuSeuSVFEhQSTQDck9AMVYN+TfK58nPrriknmPUL/WKH/fV1cv9
X+j6usdMVT3zz5dHmTydrOhV4yahaSwwSVpwmKn0nr/kSBW+jFUs8q30vnTyTomsfpC7sJrq1Q3i
WpjjIuU+C4RuaOapMjL9GKsO8/eXfzI0CGTVtE8xX+oWEYLXEMj1miX+eigI6jvRRTwpgKvPLX83
fzEtiOOsPIB1WWOGSv0shOC1Zr5S/P8Aumu47XzNbxfVpCF+vW6srJX9p46tyHjxp8jjasl826VH
eX2padbuj2PnKxEtjKpBjOo2Sh4/iG1JY1U178cKvCvL/lnVtc1yLRrOE/W3crLyBAiVTR3k8Anf
7uuRVn/54a6sUum+ULSQm00iCNrjxaX0wsYb/Vj3/wBlhKvW/wAudYGr+SNIvK8pBbrDMe/qQfum
J+ZSuEKkPktj5Q81XnkO4HDSLwy6n5PkP2fRZud5YDp8VtI/NBv+6Yfy4VehYq7FXYq7FXYq7FXY
q7FXYq7FXYq7FXnussfOfn+20CL4/LvlSWLUNckG6T6kAHsrPwIhB+sSDx9MYqnv5kauNJ8j6xdc
uMjW7QRHvzn/AHSkfLnXAVeT/kbrySy6l5QvXP1TVYZGtxXpJwKyqvu8e/8AscAV595h8s6roWuy
6NdxE3SOFi4gkSqxojx+Ift93XAr3TytpKWl/pWkzuqWPk2xN1qMjMBGNQvFZzU1pSKNnavblklY
35u/P67F3Ja+WbeP6uhK/X7hSzPT9qOOqhR4cq/IYLVhF1+bf5h3LVfWZEFahYkijA9vgQY2rPfy
/wDL35m+YIU1XU/MV9p2myfFAoctLMp/aVGPFE8CRv2FN8QrJvzC/SXlz8v9VhttWvNR1PVxHpOk
reGEsLvUHFrGY2iiiYlTLz3J2XJKzbRdKtdH0aw0m0HG1063itLceEcCCNP+FXFUZirAfJJOg+eP
M/lCQ0t7qT/Eeig/74vn43ka07RXis1PCQYqz7FXi35m/ku7ySax5WhqWJe60tNt+paAf8af8D4Z
EhXkQ0PWzcm1Gn3JuVNGgEMnMHputK4FeqeUJNfXy0vljW7W503UoJku/Kd5eRPGn1mMl1t+bgAF
iCAD1DEeGEK9C8i2GnXV9qHmy1hSFtbjgE8FKSQXEPJbmNxQUPqUr4nc4Qr5s8xarJq+u6hqchJN
3PJKK12VmJVd+yrQDIq9h/IPzHDDoV7ptyxAjvYVgNCfivFIVflyhP34Qr0Dz15RXzNowggn+o6x
ZSreaLqair2t5FvHJTurbpIv7SEjJKpeRPOLeYbK4ttQtxp/mXSXFtr2lEn9zPSoeMn7cEy/HE/d
fcHFWT4q7FXYq7FXYq7FXYq7FXYq7FWI+ffN17pi2ug+X0S684a3yj0m3feOBF2lvbnwggBqe7tR
RucVTTyf5VsvLGgw6VbSPcOGea9vpt5rm6mYvPcSnu8jkk+HToMVea/n55lgm0iz0m1etbyUXVOz
W0a/Cfb/AEgH6MiVeQeXdWk0jXrDU4zRrSeOU+6qw5D6VqMCvpHz7Yafb3um+bLxEkTQVnZYSCZJ
ppQq20aAA1Pq7jwP05Iq87843OtReWG8taXDPqOs3kz33m24s4pJVjmkIf0GZAw+HZSK7BQO+BXl
Bsb1bgWzW8ouTsISjcyf9WlcCvYPyv8AyamMsWteZ4OEaEPa6XIPiY9Q869gP5D9PgSAr20AAAAU
A2AGSVgOtH/EX5q6Poyjnp3lSBtb1E/aX69ch7awjbwZE9eX/gTirPsVdirAvzXgudMt9M89WETS
3nlOZp7yJN2l0qcCO/jA7lYwJl948VZLe+cPK9lZ295danbxwXcaTWp5gtLHIAUaNBV3BB7DFWKX
357+Q7ZisTXV5Q0rDBx/5PNFgtUok/5yK0EN+70m6ZfFmjU/cC2Nqm/l787/ACbrF0lpciXTJnIE
b3QX0S3YeopPH5sAPfG1TK5YeVvNH14beXvMEireMPsW1+fhSY+CTiisf5qHvir5+/MDy9NoHm7U
bB1IhMrTWrdmhlJZKfKvE+4yJVmVh5f1Lyh+XMXmK4Qx382qWV6tq9QfRty/pq47FvUYn2p3wq9t
8ueYtK8w6VDqemyiSCUUZTs8bj7SOOzD/PbJKkfnPyZeXt7B5m8tTR2HnHTo2jtbiUE293ATyayv
VWheFjurD4o2+Je4KqK8m+eLLzGk9pNA+l+YtOomsaFcEevbOf2gRtLC/wDuuVPhYe9QFWS4qx3z
V598v+W5ILW7aW71e7BNjotjGbm+uKdTHCm4Ud3cqg7tiqSxn84Nf/ef6B5MsG3SNl/SupU/y6NF
aRE+A9WnjiqsPy21Gajaj528w3ch+36dxbWaH/VW0t4OIr7/AIYq035b6vAOWl+eNftZVrwE8trf
R/JkureRmH+yr74qpSXf5t+Xhzubay85acm7vYj9G6kE61EEry20xArsJI69hiqf+VfO3l7zRDM2
mTst3asEv9NuUaC8tnP7E9vJR09jSh7E4qnuKsU84+e4tGuIdF0m2Osebb9SdP0aJqUXp9Yun6QW
6H7Tt16KCcVb8j+SpdD+tarrF3+lfNmrcW1fUyCqUSvp21sh/u7eLkQi9T9ptziqc6/r+maDpU2p
6lKIreEVp+07dkQd2btirwvVNF1Tzf5Bn8zwQlruDVL26kt13P1ecRluP83pemPorkVYj5B8vz69
5t06wjUtH6qy3TDosMRDSEntsKD3IwBX0BCw81+aBc1DeXfLsp9A/sXOoKKGQdiluDQH+bJKl2v/
AJ2eS9FupLS0WTUZlYmVrQIIeZ6/vGI5EnuoI98bVKov+cifL5b97pV2i+KNGx+4lcbVN7D89fIN
0wE0tzZV7zwkj/kiZcbVkT+fvKC6Ffa5HqkE1hpsD3V40bgukca8jWM0YE9ACNzhVLPyr0jUINBn
17WIjDr/AJouG1bUom+1CJVC21rvvS3t0RKH9qp74qzPFXYq06I6MjqGRgQykVBB2IIOKvPPy9Y+
V9fvvy9vP7m2Rr7ypcuN5dLd/itQ/drKRuFK/YKHFWQebvy/8teaYCuoW4S7A/dX0ICzr4fFT4h7
NXBSvn7zv+WPmLyrI0sqfW9LJ/d6hCp4DegEq7mM/PbwJwEKxDAr2P8ALTzTev5dm0HzVp93deWp
09O21I28skMaHb03kVTRB1Vv2flShCpze6A1x5h0DQ9cjW6vNMull03UZioF7pqgsY3rTnNEwTkv
cVPc4VZP+b9k13+XmrKoJeJY5hTwilRm/wCFBxKvn3yX531jynqYu7F+dvIQLuzY/u5UHY+DCvwt
2+VRkQVfR0HmiHzD5Mu9W8uTVufq8pgQgc47lELCORd9+VPmOmSVL7zQfL/5gaNpnmG1ml03WYov
U0zW7Jgl3auftxEkFZI+QKvFICjeHfCqWXOs/nPaxr5eGkWl5qlywjtfN8LBdOjh3Lz3VmzeskyK
BxjQsjsftAbYqybyf5G0nyzHPLE8l/rN8Q+q63dkSXd046c3/ZReiRoAqjoMVZFirsVdirsVYt5x
8hWevPFqljcNo/mqxUjTNftgPWjrv6Uy7LPAx+1E+3hQ74qkUOs/m/rcf6Fj0iDy1d29YtU8yzst
zbsQxX1NMtgeUnNQHUzlQlaEMRiqa2+jeW/y78t6nqsZee7ZDPqGqXr+reXs4FI/WmNCxLHiqiir
+yAMVR1x5lg8ueTLXVfMMp+sJbRfWBT95JcsgLIi7blq/LvgV84+d/PGrebdU+t3h9K2iqtpZKSU
iU/dyY/tN3+W2RJV73+TVl9W/LvTOQo1x60zD/Xlbj/woGSCsc07y+1jruuaDoEX1TUdUunkvtRS
h+o6W1GRUIqFklYtwXqBQnoMVSb8yvM9xB5cg8veUrO6h8t26eldakkMqwyKv+60lKgFTuXb9r5V
qCrx3ArK/Jf5beYvNcoa1j+racDSXUJgRGKdQg6u3sPpIxAV9AeUfy28r+WYF+rWy3F9T95fzqHl
J/ya7IPZfprkqVIfNEcPnDz1a+ULZFbSNEaHVfNsygUkkBElhp7Hfl6jqJ5VP7CqP2sKvR8Vdirs
VdirFfzD8p3eu6XBd6RItr5o0SX69oF4/wBlbhQQ0MhFD6NwlYpR4GvUDFUb5K822nmnQo9Riia0
uo3e21PTpf760vITxmt5R/Mjd+4oe+Kp3IIzGwkAMZBDhqUpTete2KvP9T1b8ldEujcTR6X9cQ1C
20CTuG+USsFPzpg2VA3H/OQfk+J+FvZX0yjblwiRfalZK/hjaq0Xn/8AL/z3ajSp7iXTL/msli84
WKWOdDWOSCUFkDg9BUE9KY2qb2uq3F1HceTvNgWDUru3kht71aCC+iZSheL+WUA1eP6Rtir5q1jS
b7SNTuNNvozFdWrlJFPt0I8Qw3B8Mir07/nHa8ul8wapZAn6rJaCZxXb1I5FVNvlI2EKlt55k8xf
lr501PTdPYPpbTmZLCaphaKX40K0pxYKePJfDetMeSvV/J35s+VvMnC39T9H6m231K4IHI+Ecmyv
8tj7YbVmuFXYq7FXYq7FXYqwXzj+b/lfy76lvC/6T1Naj6rbsOCMO0su6r8hU+2AlXlmm6/5j/Mn
zxpllqTD9GxzCd7GIFYUii+JyepLMPh5N44Oapv/AM5FXlydY0mzLH6qlu8yrvQyO5Un6AgxKvLN
K0u+1XUbfTrGIzXdy4jiQeJ7nwA6k9hgV9K3Gpz2UFp5M8q8Z9WtbeKC4vGXlBZRKoX1ZuxkalVj
6k7nbrJUok8/fl95Etn0yC4l1TUS5kv5IKSyyzn7ck8rFU5V7V26UxtVC3/5yE8oyNwuLG9hVtiw
WJx9Pxg/hjao3TdZ/JLW7n1ki0xbtzVlurdIGLV7+qqqxPsTjsr0KAQCFBBxEIUemEpx402402ph
Vjfn/wA4P5c0mNbCAX3mLVJPqegaYOs924JBalOMUQBklfoqjxpiqv5G8pp5Y0JbOSc3up3Mj3ms
akwAe6vZzymmIHQV+FF/ZQKvbFWQYq7FXYq7FXYq85896TrvlrVLjz35TT1JJYlj8z6UI/VFzbxC
iXkUQeLlc2y/s8h6ifD1C4qpy+QrPzvosGpyebr3VLS+QTWssBjSyZW3BW3Ve3u1R0O+Clebeafy
U83aNzmskGr2S787YH1gP8qHdv8AgS2ClYA6MjFHBV1JDKRQgjqCMCrcVey+SL7zLqflj9F+ZfL9
9q2hLR7HUYlpcw0+y0XMo7hf2WTcdNxthCph5x8rRvBHD5vWWe0QBLHzfbpW4gU/Zj1CID4l3pz/
AFEnCqp+V/lS78o+ZnWaaO/03Wramm6pa1eF2jPqcHpXgxSrDehpscQrX5/+VGutOtvMdtHWWy/c
XtOvoufgY/6jmn+yxKvCMir2b8lfzH1ObUo/LOrTtcxTI36OnkNZEZAWMTMdypUHjXp0+RBV7bkl
dirsVdirw387PzE1JdUk8saXO1vbQIBqMkZo0jyKG9PkN+KqRWnUmh6ZElXjuBXvP5AeVWtdMufM
VwlJb/8AcWdeogRvjb/ZuP8AhckFXfmn5XufN3mSC3gkjsbHRbctqmq3IKQoZiHWNSac2CDl1oK7
kYlUP5Q8sxxQSxeTlljtipW/83Tx/v5kH2otPhPiRTn+s0xVLvO995l0ry02meXNAvdJ0N+T6hqc
y1upyT8TzMhdkDftM+56bDbAVeO4FXIju4RFLOxoqgVJJ7ADFXoPlX8kvNms8J79RpFk1DzuBWYg
/wAsIIYf7MrhpWf3HknTvy+0C41mPzXqGnQWi85QwjngkdiAqLacfjd2PFVB5EnbDSpr+X3lzX7y
8PnfzkijzJdwCDT9PC8U02yND6SoS/GeYjnOeR3og2Xcqz3FXYq7FXYq7FXYq7FXm2q6fqn5eapc
+YdCgkvvJ19IZ/MGgwKXls5XNZL+xQblCfinhH+uu9RirP8AS9U07VdPt9S025jvLC6QS29zCwdH
RuhUjFUq8w+Q/KfmE89U06OWf/lpSscv0uhVj8jjSsZk8l/lL5JK6jqKRpIDygN5I07VH++4d+R9
+JpgpWPa/wD85DxIzRaBpnqAbLc3hKr9EUZrT/ZjBasah/PvzqspNxFZXMDbPA8TBeJ6gFXB++uN
qnflPznpF7ef869df4W1aduTaTdH1tJuXPULTiYHY91p4CuNqz2fznaxwy6Z500uTSUuFMMkzgz2
EyuOJAuEFF5eDgUw2rx7zd+Umr6eW1Dy+f01oUlXhmtiJZETwdUryp/Mu3ywUrG/J18NI846Td3N
YUtruL6wX+EohYK9a+Ck4Ar64BBFRuD0OTV2KuxVpmVVLMQFAqSdgAMVfI3my+/THm7Vby2BmS6u
5Wt+I5Fk5kJQD/JAyCsn8pflFrGoMuoeYP8AcJocZ5TzXJEUrKOoVXpwr/M9PauGlewQ+dbN4U0v
yXpkmsfVlEMcsX7mwhVBxAa4k2biOycq4bVgfm3zjpNpdV8yXY8z6tC3JNFsyYtJtnH+/CeRnYf5
Ve4NMFqkc359edDIv1aGytbdKBLdImK8R0BJav3UxtWSaB/zkPG7LFr+mcAdmubM1H/IqQ1p/szj
asgi8l/lH51ZtR01Y2lb4phZyNA3+zg247nrwFcNBWU+XvIvlTy8eeladHDMetw1ZJd+tJJCzAHw
BphpUb5h8w6P5d0e51jWLlbTT7ReUsrb9dlVVG7Ox2VRuTsMVYjoWgap5s1q084+arWSztbI+r5Y
8tTdbYkbXt6oJU3bA/Am4hH+XUhVn+KuxV2KuxV2KuxV2KuxV2KvPtS8ra55Q1G58weR4BdafdO0
+t+US3COZ23e5sGY8Ybk/tIaJJ7Nviq+1846z52tpV8mSRafbQt6N/f3w/0qCYD44PqW7xyJ0PrU
9qijYFYZ5g/IXzRdTSXkeux6pdvvI92JInb25Vm+iuClYHrH5Z+edJq11pE7xL1ltwJ0p4kxF6D5
0wUrHUtLp7gW6Qu1wTxEIUl6+HGlcVeufl7+R8t2i6j5rjeCA7w6YCUkYeMpHxIP8kfF40wgKyTV
fPv5beSIJ9K0m3+vSvtNZW7mWFSKji8krOq+4WvuMNq87b8yPL5vHubPQp9CmkPxT6RfNBt/lQmI
wv8A8CMFqyPT/OkOuwNb3GsaXf1UqbbzLaLauF/ybqBmjJ8DQH2rjasw8ta55mstHhgsNATVtNh5
LDd2Oqw3ShQT8CmXg1E+yByJAwqmy+dtTVmWbypq6kUp6aW0g+/1lGNq5/O2pllWHypq7E9fUS3j
Htv6zY2qUeZ9Z8x3+jyQaj5eTTNMlKCa4v8AVYbWMgkfBIYeTcX6MvIVGKsQ1Hz8ujwiC21fTLEB
eK2vlyzFy3Hwa4uCkQ+YUn2wWrG1/MfQPraXN9oc+uzxtVZ9Wv2np/qwiJYU/wCBONq9F0jz9+XH
na3g0jVbf6hIhpDZTuY4WJFOKSRFFPgFansMNqx38w/yPa3RtS8pxvLEN5tLLF3UeMLN8Tf6pNfC
vTAQryGS0uopzbyQulwDxMLKQ9fDiRXArItI/LTzzqxU2ukTpG3SW4HoJTxBl4V+jGlZ35f/ACF8
0208d5JrkWl3UfxRyWgklkU0/mrD9NDhpWXX3nbXfJK21j5o4a7NekxaQdNA/SFzKq19M2ZKlq95
E+Ff26dcKonQvJus6xrEHmnz16b39sTJovl6JhJZ6ZyFObN0uLqn2pT8KnaP+YlWd4q7FXYq7FXY
q7FXYq7FXYq7FXYqxPzP+X8Go6iNe0S8fQPNUahF1a2UMs6L0hvYDRLmLwDfEv7LLiqB078yJ9Nv
IdG8/Wi6Bqkrela6mjF9IvW7ehct/dO1P7mbi3gW64qzoEEVG4PQ4qhNV1bTtJsJb/Ubhba0hFZJ
XO3sAOpJ7AbnFXz7+YH5x6tr7S2Gkl9P0c1U0NJ516fvGH2VP8o+knIkq84wK2qszBVBLE0AG5JO
Kvdvyo/KS2trVNa8yWiy3koDWlhOtVhXs8iHYuewP2fn0kAr1uKGKGMRxIsca7KiAKo+QGFWNeb/
AMxvLHlVki1KZ3u5F5paQLzlKbjkalVUVG3JhgtVfyl578ueaopH0qdjLDQzW0q8JVB6HjUgj3BO
Nqn0kcciFJFDoeqsAQfoOFXkv5sflLBd2za15ctBHfRCt3YQKAJk/njRf92DuB9r59QQrwhlZWKs
CGBoQdiCMirWKvR/y/8Azj1bQGisNWL6ho4ooqazwL0/dsftKP5T9BGEFX0FpWradq1hFf6dcLc2
kwrHKh29wR1BHcHcZJUU7pGjSSMERAWd2NAANySTirArn8wtT8xXEmm/l3bR6jwYx3Xme55DSbcg
0b0mWjXki/yRHj/M4xVN/KfkHT9CuZdVuriXWfM12vG+1694md16+lEqgJBCD9mKMAeNTvirJ8Vd
irsVdirsVdirsVdirsVdirsVdirsVUL/AE+w1Gzmsb+2iu7K4UpPbToskbqf2WRgVI+eKsKTyL5j
8sAv5E1QCwU1/wAMau0k9kB/La3Hx3Fp7D95GOyDFUhn8y6Bea9EfzOtJ9AnjIXTNO1IKdH5kfE6
X0Za2nkbt6pQgGnCu+KvS49J0Ka2j9OztZLYrWLjHG0fFu60FKHFUJP5I8mz/wB7odgx/m+rRBtv
cLXGlX6f5P8AKunTi4sdItLe4H2Zo4UDing1Kj6MVRmsPfx6RfPpyh9QS3lazQ7gzBCYxv8A5VMV
eE/lRrvnq68/RwXN1eXEBMv6VhuGkZEHBiCyvsjB6U6eGRCpH+cllqFv+YGoyXgbjc+nLayHo0PA
KvH/AFSpX5jEqmP5DWV/L53F1ArC1treX624rxo4oik+JehA9vbEKifzT17z7a+f5YILq8t4lZP0
TDbNIqOhUbqqbSFmry6+HTEq960x7x9NtHvV43rQxm5UbUlKDmNv8quSVBaj5R8ralMZ7/SbS5nP
2ppIUZz82pU4q1b+TvKVvQwaLYRkUoy20IO3TfjXFUTc2uhWdnJJcw2tvZRqTK8ixpEqnqWLUUD5
4q80s/MWmDW3k/KzTptYE7EaiLcCDQS24En1ySiB1IH+8yyVH7OKp3H+XWr+YXW4/MPU11WIEPH5
bsVe30mMjp6oJ9a8P/GY8P8AisYqzq3t7e2gjt7eJIYIlCRQxqERVGwVVFAAMVVMVdirsVdirsVd
irsVdirsVdirsVdirsVdirsVdiqnc21vdQSW9zEk9vKpWWGRQ6Mp6hlaoIxVhcv5S6JaSm48qX17
5SuSxcppMoFmzE1+OwnWa06k/ZjU++KuD/nDo+zRaT5rtV2Do0mk3pHurfW7d2+TRj5Yq3/ytKOz
28w+Wtd0Tj/ezNZG/t19/W01rwcfdqYqi7D82vyzvpPSh8zaclxt/o1xcJbTb9vSnMclf9jirJLP
UdPvV5Wd1DcrSvKGRZBTpX4ScVUtU0TR9WhWHU7KG9iQ8kWeNZOJ8V5A0+jFV+m6Tpel2/1bTbSG
zgryMUCLGpJ7kKBU4q691bS7AVvryC1FK1nkSPY9/iI8MVY1e/m9+WNnJ6T+ZrCef/lns5heTf8A
Iq29V/wxVDt+ZlxeHh5e8qa5qzN/dzS2o0y3I/mMmotavT/VQ/LFWjF+cOsD95NpPlS2btAJNXvQ
P9eQWluh/wBhIMVVLb8pvLUlzHe+YpbvzVfxnlHNrUv1iFG2NYrNRHaR7jqsVffFWZoiRoscahEQ
BURRQADYAAYq3irsVdirsVdirsVdirsVdirsVdirsVdirsVdirsVdirsVdirsVdirsVSzXf8M/Vx
+nvqX1fen170uFO/97tirzfWf+hWfU/3If4R9bflw+oepWg+16XxdOlcVQH/AFi//wAuP/T3irv+
sXf2v0fx78/rPGn+Vy2p88VTTRf+hX+Y/Rn+EPW5HjX9H+rWgrx9T46U8NsVekaR+hPq3+4f6t9V
/wCXP0/Tr/zz2xVHYq7FXYq7FXYq7FXYq7FXYq7FXYq7FXYq/wD/2Q==</xmpGImg:image>
               </rdf:li>
            </rdf:Alt>
         </xmp:Thumbnails>
         <xmp:MetadataDate>2023-11-25T17:51:02-08:00</xmp:MetadataDate>
         <xmp:ModifyDate>2023-11-25T17:51:02-08:00</xmp:ModifyDate>
         <xmpTPg:MaxPageSize
   rdf:parseType="Resource">
            <stDim:w>245.800003</stDim:w>
            <stDim:h>200.699997</stDim:h>
            <stDim:unit>Points</stDim:unit>
         </xmpTPg:MaxPageSize>
         <xmpTPg:NPages>1</xmpTPg:NPages>
         <xmpTPg:HasVisibleTransparency>False</xmpTPg:HasVisibleTransparency>
         <xmpTPg:HasVisibleOverprint>False</xmpTPg:HasVisibleOverprint>
         <xmpTPg:PlateNames>
            <rdf:Seq>
               <rdf:li>Cyan</rdf:li>
               <rdf:li>Magenta</rdf:li>
               <rdf:li>Yellow</rdf:li>
               <rdf:li>Black</rdf:li>
            </rdf:Seq>
         </xmpTPg:PlateNames>
         <xmpTPg:SwatchGroups>
            <rdf:Seq>
               <rdf:li
   rdf:parseType="Resource">
                  <xmpG:groupName>Default Swatch Group</xmpG:groupName>
                  <xmpG:groupType>0</xmpG:groupType>
               </rdf:li>
            </rdf:Seq>
         </xmpTPg:SwatchGroups>
         <dc:format>image/svg+xml</dc:format>
         <xmpMM:DerivedFrom
   rdf:parseType="Resource" />
         <xmpMM:DocumentID>xmp.did:a6bae537-6b75-934f-b32d-fd6c41dee7a8</xmpMM:DocumentID>
         <xmpMM:InstanceID>xmp.iid:a6bae537-6b75-934f-b32d-fd6c41dee7a8</xmpMM:InstanceID>
         <xmpMM:OriginalDocumentID>xmp.did:a6bae537-6b75-934f-b32d-fd6c41dee7a8</xmpMM:OriginalDocumentID>
         <xmpMM:History>
            <rdf:Seq>
               <rdf:li
   rdf:parseType="Resource">
                  <stEvt:action>saved</stEvt:action>
                  <stEvt:instanceID>xmp.iid:a6bae537-6b75-934f-b32d-fd6c41dee7a8</stEvt:instanceID>
                  <stEvt:when>2023-11-25T17:51:02-08:00</stEvt:when>
                  <stEvt:softwareAgent>Adobe Illustrator 28.0 (Windows)</stEvt:softwareAgent>
                  <stEvt:changed>/</stEvt:changed>
               </rdf:li>
            </rdf:Seq>
         </xmpMM:History>
      </rdf:Description>
   <cc:Work
   rdf:about=""><dc:format>image/svg+xml</dc:format><dc:type
     rdf:resource="http://purl.org/dc/dcmitype/StillImage" /><dc:title></dc:title></cc:Work></rdf:RDF></metadata></x:xmpmeta>
                                                                                                    
                                                                                                    
                                                                                                    
                                                                                                    
                                                                                                    
                                                                                                    
                                                                                                    
                                                                                                    
                                                                                                    
                                                                                                    
                                                                                                    
                                                                                                    
                                                                                                    
                                                                                                    
                                                                                                    
                                                                                                    
                                                                                                    
                                                                                                    
                                                                                                    
                                                                                                    
                           
<?xpacket end="w"?>
	</metadata>
<sodipodi:namedview
   inkscape:document-rotation="0"
   showgrid="false"
   pagecolor="#ffffff"
   objecttolerance="10"
   inkscape:zoom="4.2676973"
   inkscape:window-y="-6"
   inkscape:window-x="3833"
   inkscape:window-width="3440"
   inkscape:window-maximized="1"
   inkscape:window-height="1388"
   inkscape:pageshadow="2"
   inkscape:pageopacity="0"
   inkscape:cy="134.56629"
   inkscape:cx="262.00756"
   inkscape:current-layer="layer2"
   id="namedview20"
   guidetolerance="10"
   gridtolerance="10"
   borderopacity="1"
   bordercolor="#666666"
   fit-margin-top="0"
   fit-margin-left="0"
   fit-margin-right="0"
   fit-margin-bottom="0">
	</sodipodi:namedview>
<g
   style="display:inline"
   inkscape:label="F.SilkS"
   inkscape:groupmode="layer"
   id="layer2"
   transform="translate(272.39424,100.97842)"><path
   id="path1133"
   d="m -170.89424,108.18825 c 6,4.33333 11.33333,4 13,4.66666 3.66666,2 3.66666,2 3.66666,2 0.33334,-1 0.33334,-1 0.33334,-1 -7.33334,-4.33333 0,-12.33333 -10.33334,-18.000003 -3.33333,-2 -8.33333,-4.66666 -11.66666,-6.66666 -5.33333,-3 -5,-6.33334 -7,-9.66667 -1,3.33333 7,25.666673 12,28.666673 z m -22.33333,-174.666669 c 1,-2 1,-4.333333 5,-5.666667 1.66666,-0.333333 4.33333,-1 6.33333,-1.333333 2.66667,-1 3,-2.666667 4.33333,-4 0,2 -6.33333,11.333333 -9,12.333333 -3.33333,1 -6,0.333334 -7,0.333334 0,0 0,0 0,0 -5,3.666666 -9.66666,7.666666 -14,12 -17.33333,18 -28.33333,43.0000003 -28.33333,70.666659 0,27.33334 11,52.33334 28.33333,70.33334 17.66667,18.000003 41.66667,29.333333 68.33333,29.333333 27,0 50.999998,-11.33333 68.666668,-29.333333 17.33333,-18 28,-43 28,-70.33334 0,-27.6666587 -10.66667,-52.666659 -28,-70.666659 -4.33333,-4.333334 -9,-8.333334 -14,-12 0,0 0,0 0,0 -1,0 -3.66667,0.666666 -7,-0.333334 -2.66667,-1 -9.333328,-10.333333 -8.999998,-12.333333 1.333328,1.333333 1.333328,3 4.333328,4 1.66667,0.333333 4.33334,1 6.33334,1.333333 4,1.333334 4,3.666667 4.66666,5.666667 5.66667,3.666667 10.66667,8 15.33334,12.666667 17.66666,18.333333 28.66666,43.666666 28.66666,71.666659 0,28 -11,53.33334 -28.66666,71.33334 -17.66667,18.333333 -42.333338,29.666663 -69.333338,29.666663 -26.66666,0 -51.33333,-11.33333 -68.99999,-29.666663 -17.66667,-18 -28.66667,-43.33334 -28.66667,-71.33334 0,-27.999993 11,-53.333326 28.66667,-71.333326 4.33333,-5 9.66666,-9.333333 15,-13 0,0 0,0 0,0 z m 39.99999,203.999999 c -2,0 -4,-1.66667 -4,-3.66667 0,-2 1.66667,-4 4,-4 2,0 3.66667,1.66667 3.66667,4 0,2 -1.66667,3.66667 -3.66667,3.66667 z m 28,0 c -2,0 -3.66666,-1.66667 -3.66666,-3.66667 0,-2 1.66666,-4 3.66666,-4 2,0 4,1.66667 4,4 0,2 -1.66666,3.66667 -4,3.66667 z m -14.33333,1.33333 c -3.66667,0 -6.33333,-3 -6.33333,-6.33333 0,-3.33333 3,-6.33333 6.33333,-6.33333 3.66667,0 6.33333,3 6.33333,6.33333 0,3.33333 -2.66666,6.33333 -6.33333,6.33333 z m 54.999998,-198.333329 c -2.66667,-1.333333 -14,0.666667 -15.33333,2 2,0 3.33333,-1 6,0.333333 1.66666,1 4,2.666667 5.66666,3.666667 5,2.666667 6.66667,-2 10.33334,0 0.33333,-0.666667 0.33333,-0.666667 0.33333,-0.666667 -1.66667,-1 -1.66667,-1 -1.66667,-1 -1,-0.333333 -2,-3 -5.33333,-4.333333 0,0 0,0 0,0 z m 2,-9.333333 c 2,2.666666 4.66667,3.666666 5.33333,4.333333 1.33334,1.666667 1.33334,1.666667 1.33334,1.666667 0,-0.666667 0,-0.666667 0,-0.666667 -2.33334,-3.333333 2.33333,-5.333333 -1.33334,-10 -1.33333,-1.666667 -3,-3.666667 -4.33333,-5 -1.66667,-2.333333 -1,-3.666667 -1.33333,-5.666667 -1,1.333334 -1.33334,13 0.33333,15.333334 0,0 0,0 0,0 z m 13.66667,10.333333 c 2,3.333333 5,4.333333 5.66666,5 1.33334,1.666667 1.33334,1.666667 1.33334,1.666667 0.66666,-0.333334 0.66666,-0.333334 0.66666,-0.333334 -3,-4 2.33334,-6.333333 -1.66666,-11.333333 -1.33334,-2 -3.33334,-4 -5,-5.666667 -2,-2.666666 -1,-4.333333 -1.33334,-6.333333 -1.33333,1.666667 -1.66666,14.666667 0.33334,17 0,0 0,0 0,0 z m -0.33334,11.666667 c -2.66666,-2.333334 -16.66666,-3.666667 -18.66666,-2.666667 2.66666,0.666667 4.33333,0 6.66666,2.666667 2,1.666666 4,4.333333 5.66667,6 5,5 8.66667,0 12.33333,3.333333 0.33334,-0.333333 0.33334,-0.333333 0.33334,-0.333333 -1.66667,-1.666667 -1.66667,-1.666667 -1.66667,-1.666667 -0.66667,-1 -1.33333,-4.333333 -4.66667,-7.333333 0,0 0,0 0,0 z m 12,-1.333334 c 1.33334,4.333334 4,6.333334 4.66667,7.333334 1,2.666666 1,2.666666 1,2.666666 0.33333,-0.666666 0.33333,-0.666666 0.33333,-0.666666 -1.66666,-5 5,-6 2.33334,-13 -1,-2.333334 -2.33334,-5.666667 -3.33334,-8 -1.33333,-3.666667 0.33334,-5 0.33334,-7.333334 -1.66667,1.333334 -6.66667,15.333334 -5.33334,19 0,0 0,0 0,0 z m 8.33334,13.333334 c 0,5.333333 2.33333,8.666666 2.66666,9.666666 0.33334,3 0.33334,3 0.33334,3 0.66666,0 0.66666,0 0.66666,0 -0.66666,-6 7,-5.333333 6.33334,-13.666666 -0.33334,-3 -0.66667,-7 -1,-9.666667 -0.33334,-4.333333 1.66666,-5.333333 3,-8 -2.33334,0.666667 -12.33334,14.666667 -12,18.666667 0,0 0,0 0,0 z m -6.66667,7.333333 c -2.33333,-3.333333 -17.66667,-9.333333 -20.33333,-8.666667 2.66666,1.333334 4.66666,1 7,4.666667 1.33333,2.666667 3,6 4.33333,8.666667 4,7.333333 9.66667,2.333333 12.66667,7.333333 1,0 1,0 1,0 -1.66667,-2.666667 -1.66667,-2.666667 -1.66667,-2.666667 -0.33333,-1 -0.33333,-5 -3,-9.333333 0,0 0,0 0,0 z m 15.33333,8.333333 c -1.33333,5 0.33334,8.666667 0.33334,10.0000003 -0.66667,3 -0.66667,3 -0.66667,3 0.66667,-0.333333 0.66667,-0.333333 0.66667,-0.333333 1.33333,-5.6666673 8.33333,-3 9.33333,-11.3333333 0.66667,-3 1,-6.666667 1.33333,-9.666667 0.66667,-4.333333 3,-4.666667 4.66667,-7 -2.33333,0.333333 -15,11.333333 -15.66667,15.333333 0,0 0,0 0,0 z m -8,16.3333343 c -1,-4 -14.66666,-13.6666673 -17,-13.6666673 2,2.333333 4.33334,2.333333 5.33334,6.6666673 0.66666,2.666666 1.33333,6.333333 2,9.33333299 2,8.00000001 8.66666,4.66667001 10.33333,10.33333001 0.66667,0 0.66667,0 0.66667,0 -0.66667,-2.66666 -0.66667,-2.66666 -0.66667,-2.66666 0,-1.33334 1,-5 -0.66667,-10.000003 0,0 0,0 0,0 z m 12.33334,1 c 1.66666,-4 16.66666,-12.0000003 19,-11.6666673 -2.33334,2 -4.66667,2 -6,6.0000003 -1,2.666667 -2.33334,6.333333 -3.33334,9 -3,7.66667 -9.33333,3.66667 -11.66666,8.9999997 -0.66667,0 -0.66667,0 -0.66667,0 1,-2.6666697 1,-2.6666697 1,-2.6666697 0.33333,-1.33333 -0.66667,-5 1.66667,-9.666663 z m 3.33333,17.9999987 c -3.66667,4 -4,8.33333 -4.66667,9.66666 -2,2.66667 -2,2.66667 -2,2.66667 0.66667,0 0.66667,0 0.66667,0 4,-5 9.33333,1.33333 15,-6 1.66667,-2.66667 4.33333,-6 6,-8.66667 2.66667,-3.666656 5,-2.999996 7.9999996,-4.3333257 -2.3333296,-1 -20.3333296,2.9999997 -22.9999996,6.6666657 0,0 0,0 0,0 z m -14,7 c 0,-4.66667 -11.33333,-18.6666657 -14,-19.3333357 1.66667,3 4,4 3.66667,8.6666697 0,2.999996 -0.33334,6.999996 -0.33334,9.999996 -0.33333,9.33333 7.66667,7.66667 7.66667,14 0.66667,0.33333 0.66667,0.33333 0.66667,0.33333 0,-3.33333 0,-3.33333 0,-3.33333 0.33333,-1.33333 2.66666,-4.66667 2.33333,-10.33333 z m 10,13.66666 c -4.33333,5 -4.66667,9.66667 -5.33333,11 -2.33334,3 -2.33334,3 -2.33334,3 1,0.33334 1,0.33334 1,0.33334 4.66667,-5.66667 10.66667,1.33333 17,-7 2,-3 4.66667,-7 7,-9.66667 3,-4.33333 6,-3.66667 9,-5.33333 -2.66666,-1 -23,3.66666 -26.33333,7.66666 0,0 0,0 0,0 z m -15.33333,16 c 1,-4.66666 -7.33334,-21.33333 -10,-22.33333 0.66666,3 3,4.33333 2,9 -1,3 -2,7.33333 -2.66667,10.33333 -2.33333,9.33334 6,9.33334 4.66667,16 1,0.33334 1,0.33334 1,0.33334 0.66666,-3.33334 0.66666,-3.33334 0.66666,-3.33334 0.33334,-1.33333 3.66667,-4.33333 4.33334,-10 0,0 0,0 0,0 z m 9.33333,4.33334 c -5,3.66666 -6.33333,8.33333 -7.33333,9.66666 -2.66667,2.33334 -2.66667,2.33334 -2.66667,2.33334 0.66667,0.66666 0.66667,0.66666 0.66667,0.66666 5.66666,-4.66666 10.33333,3.33334 18,-3.66666 2.66666,-2.33334 6.33333,-5.66667 9,-8 4,-3.66667 6.33333,-2.33334 10,-3 -2.66667,-2 -23.66667,-1.66667 -27.66667,2 0,0 0,0 0,0 z m -7.66667,18 c -5.66666,3 -8,7.33333 -9,8.33333 -3.33333,2 -3.33333,2 -3.33333,2 0.66667,0.66667 0.66667,0.66667 0.66667,0.66667 6.66666,-3.66667 9.66666,5 18.66666,-0.33334 3,-1.66666 7,-4.66666 10,-6.33333 4.66667,-3 7,-1 10.66667,-1.33333 -2.33333,-2.33334 -23,-5.66667 -27.66667,-3 0,0 0,0 0,0 z m -14.33333,16.66666 c -7,2.33334 -10,7 -11.66667,8 -3.66666,1.333343 -3.66666,1.333343 -3.66666,1.333343 0.66666,1 0.66666,1 0.66666,1 7.66667,-3.000003 9.66667,7.33333 20.66667,2.66666 3.66667,-1.66666 8.33333,-4 12,-5.666663 5.66667,-2.33334 8,0 12,0.33333 -2,-3 -24.66667,-10 -30,-7.66667 0,0 0,0 0,0 z m 2,-22.33333 c 1,-5 -8.66667,-23.66667 -11.33333,-25 1,3.33333 3.33333,5 2,10 -0.66667,3.66667 -2,8 -3,11.66667 -2.33334,10.33333 7,10.33333 5.66666,17.66666 0.66667,0.66667 0.66667,0.66667 0.66667,0.66667 0.66667,-3.66667 0.66667,-3.66667 0.66667,-3.66667 1,-1.66666 4.33333,-5 5.33333,-11.33333 0,0 0,0 0,0 z m -21,37.000003 c -7,0.66667 -11,4.66667 -12.66667,5.33333 -3.999998,1 -3.999998,1 -3.999998,1 0.333338,1 0.333338,1 0.333338,1 8.33333,-1.66666 8.66666,9 20,6 4,-0.66666 9.33333,-2.33333 13.33333,-3.33333 5.66667,-1.33333 7.66667,1.33333 11.33333,2.33333 -1.33333,-3 -22.66666,-13.66666 -28.33333,-12.33333 z m 2.66667,-13.000003 c 3.66666,-3.66667 5.33333,-24.33333 3.66666,-27 -1,3.33333 0,6 -3.66666,9.66667 -2.66667,2.66666 -6.33334,5.66666 -8.66667,8.33333 -7.33333,7.33333 0.33333,12.33333 -4.66667,18.000003 0.33334,0.66667 0.33334,0.66667 0.33334,0.66667 2.66666,-2.66667 2.66666,-2.66667 2.66666,-2.66667 1.33334,-1.000003 6,-2.000003 10.33334,-7.000003 z m -25.999998,22.666673 c -7,-0.33334 -11.66667,3 -13.33334,3.33333 -4.33333,0 -4.33333,0 -4.33333,0 0.33333,1 0.33333,1 0.33333,1 8.33334,0 7,10.33333 18.66667,9.66667 4,-0.33334 9.333328,-0.66667 13.333328,-1 6,-0.33334 7.33334,2.66666 11,4.33333 -1,-3 -19.666658,-17.66667 -25.666658,-17.33333 z m -0.66667,-8 c 5,-3 12.999998,-25.333343 11.999998,-28.666673 -2,3.33333 -1.66667,6.66667 -6.999998,9.66667 -3.33333,2 -8.33333,4.33333 -11.66667,6.33333 -10.33333,6.000003 -3,13.666673 -10.33333,18.333333 0.33333,1 0.33333,1 0.33333,1 3.66667,-2.33333 3.66667,-2.33333 3.66667,-2.33333 1.66667,-0.33333 7.33333,-0.33333 13,-4.33333 z m -86.33333,-167.666669 c -3,1.333333 -4.33333,4 -5,4.333333 -2,1 -2,1 -2,1 0.33333,0.666667 0.33333,0.666667 0.33333,0.666667 4,-2 5.33334,2.666667 10.33334,0 1.66666,-1.333333 4,-2.666667 5.66666,-3.666667 2.66667,-1.333333 4,-0.333333 6,-0.333333 -1.33333,-1.333333 -12.66666,-3.333333 -15.33333,-2 0,0 0,0 0,0 z m -2,-9.333333 c 2,-2.333334 1.66667,-14 0.66667,-15.333334 -0.66667,2 0.33333,3.333334 -1.66667,5.666667 -1,1.666667 -3,3.333333 -4.33333,5 -3.33334,4.666667 1.33333,6.666667 -1.33334,10 0.33334,0.666667 0.33334,0.666667 0.33334,0.666667 1.33333,-1.666667 1.33333,-1.666667 1.33333,-1.666667 0.66667,-0.666667 3,-1.333333 5,-4.333333 0,0 0,0 0,0 z m -13.33333,10.333333 c 2,-2.666667 1.33333,-15.666667 0.33333,-17 -0.33333,2 0.66667,3.666667 -1.66667,6.333333 -1.33333,1.666667 -3.33333,3.666667 -4.66666,5.666667 -4,5 1,7.333333 -1.66667,11.333333 0.33333,0.333334 0.33333,0.333334 0.33333,0.333334 1.66667,-1.666667 1.66667,-1.666667 1.66667,-1.666667 0.33333,-0.666667 3.33333,-1.666667 5.66667,-5 0,0 0,0 0,0 z m 0,11.666667 c -3.33334,3 -4,6.333333 -4.66667,7 -1.66667,2 -1.66667,2 -1.66667,2 0.66667,0.333333 0.66667,0.333333 0.66667,0.333333 3.66667,-3.666667 7,1.666667 12,-3.333333 1.66667,-2 4,-4.333334 5.66667,-6 2.66666,-2.666667 4.33333,-2 6.66666,-2.666667 -2,-1 -16,0.333333 -18.66666,2.666667 0,0 0,0 0,0 z m -12,-1.333334 c 1.33333,-3.666666 -3.66667,-17.666666 -5.33334,-19 0.33334,2.333334 2,3.666667 0.33334,7.333334 -1,2.333333 -2.33334,5.666666 -3,8 -2.66667,7 3.66666,8 2,13 0.66666,0.666666 0.66666,0.666666 0.66666,0.666666 0.66667,-2.666666 0.66667,-2.666666 0.66667,-2.666666 0.66667,-1 3.66667,-3 4.66667,-7.333334 0,0 0,0 0,0 z m -8,13.333334 c 0.33333,-4 -9.66667,-18 -12,-18.666667 1,2.666667 3,3.666667 2.66666,8 0,2.666667 -0.66666,6.666667 -1,9.666667 -0.66666,8.333333 7,7.333333 6.66667,13.666666 0.66667,0 0.66667,0 0.66667,0 0.33333,-3 0.33333,-3 0.33333,-3 0,-1.333333 2.66667,-4.333333 2.66667,-9.666666 0,0 0,0 0,0 z m 6.66666,7.333333 c -3,4.333333 -2.66666,8.333333 -3.33333,9.333333 -1.33333,2.666667 -1.33333,2.666667 -1.33333,2.666667 0.66666,0.333333 0.66666,0.333333 0.66666,0.333333 3.33334,-5 8.66667,-0.333333 13,-7.666666 1.33334,-2.333334 3,-6 4.33334,-8.333334 2,-3.666666 4.33333,-3.666666 6.66666,-5 -2.33333,-0.666666 -18,5 -20,8.666667 0,0 0,0 0,0 z m -15.33333,8.333333 c -0.66667,-4 -13.66667,-15 -16,-15.333333 1.66667,2.333333 4,3 4.66667,7 0.33333,3 0.66666,6.666667 1.33333,9.666667 1.33333,8.3333333 8,5.666666 9.33333,11.6666663 0.66667,0 0.66667,0 0.66667,0 -0.33333,-3 -0.33333,-3 -0.33333,-3 -0.33334,-1.3333333 1.33333,-5.0000003 0.33333,-10.0000003 0,0 0,0 0,0 z m 7.66667,16.3333343 c -1.66667,5.000003 -0.33334,8.666663 -0.33334,10.000003 -0.66666,2.66666 -0.66666,2.66666 -0.66666,2.66666 0.66666,0 0.66666,0 0.66666,0 1.66667,-5.66666 8.33334,-2.33333 10.33334,-10.33333001 0.66666,-2.99999999 1.33333,-6.66666699 2,-9.33333299 1,-4.3333343 3.33333,-4.3333343 5.33333,-6.6666673 -2.66667,0 -16.33333,9.6666673 -17.33333,13.6666673 z m -12.33334,1 c 2.33334,4.666663 1.66667,8.333333 2,9.666663 1,2.6666697 1,2.6666697 1,2.6666697 -1,0 -1,0 -1,0 -2,-5.3333297 -8.33333,-1.3333297 -11.33333,-8.9999997 -1.33333,-2.666667 -2.33333,-6.333333 -3.33333,-9 -1.66667,-4.0000003 -4,-4.0000003 -6,-6.0000003 2.33333,-0.333333 17.33333,7.6666673 18.66666,11.6666673 0,0 0,0 0,0 z m -3.33333,17.9999987 c -2.66667,-3.666666 -20.33333,-7.6666657 -23,-6.6666657 3,1.3333297 5.33333,0.6666697 8,4.3333257 2,2.66667 4.33333,6 6,8.66667 5.66667,7.33333 11,1 15,6 0.66667,0 0.66667,0 0.66667,0 -2,-2.66667 -2,-2.66667 -2,-2.66667 -0.33334,-1.33333 -0.66667,-5.33333 -4.66667,-9.66666 0,0 0,0 0,0 z m 14,7 c -0.33333,5.66666 2,9 2.33333,10.33333 0,3.33333 0,3.33333 0,3.33333 0.66667,-0.33333 0.66667,-0.33333 0.66667,-0.33333 0,-6.33333 8,-5 7.66667,-14 0,-3 -0.33334,-7 -0.33334,-9.999996 -0.33333,-4.6666697 2,-5.6666697 3.66667,-8.6666697 -2.66667,0.66667 -14,14.6666657 -14,19.3333357 z m -10,13.66666 c -3,-4 -23.33333,-8.66666 -26.33333,-7.66666 3.33333,1.66666 6,1 9.33333,5.33333 2,2.66667 4.66667,6.66667 7,9.66667 6,8.33333 12.33333,1.33333 17,7 1,-0.33334 1,-0.33334 1,-0.33334 -2.33333,-3 -2.33333,-3 -2.33333,-3 -0.66667,-1.33333 -1,-6 -5.66667,-11 0,0 0,0 0,0 z m 15.33333,16 c 1,5.66667 4,8.66667 4.66667,10 0.66667,3 0.66667,3 0.66667,3 0.66666,-0.33333 0.66666,-0.33333 0.66666,-0.33333 -1.33333,-6.33333 7.33334,-6.66667 5,-15.66667 -0.66666,-3.33333 -2,-7.33333 -2.66666,-10.33333 -1,-4.66667 1,-6.33333 2,-9.33333 -2.66667,1.33333 -11.33334,18 -10.33334,22.66666 0,0 0,0 0,0 z m -9.33333,4.33334 c -4,-3.66667 -25,-4 -27.33333,-2.33334 3.33333,0.66667 6,-0.66666 10,3 2.66666,2.33334 6,6 8.66666,8 7.66667,7 12.33334,-1 18,3.66667 1,-0.33333 1,-0.33333 1,-0.33333 -3,-2.66667 -3,-2.66667 -3,-2.66667 -0.66666,-1 -2,-5.66667 -7.33333,-9.33333 0,0 0,0 0,0 z m 7.66667,18 c -4.33334,-2.66667 -25,0.66666 -27.33334,2.66666 3.66667,0.33334 6,-1.33333 10.33334,1.33334 3.33333,2 7,4.66666 10.33333,6.66666 9,5.33334 12,-3.33333 18.33333,0.33334 0.66667,-0.66667 0.66667,-0.66667 0.66667,-0.66667 -3,-2 -3,-2 -3,-2 -1.33333,-1 -3.66667,-5.33333 -9.33333,-8.33333 0,0 0,0 0,0 z m 14.33333,16.66666 c -5.33333,-2 -28,5 -30,7.66667 4,-0.33333 6.33333,-2.66667 12,-0.33333 3.66667,1.666663 8.33333,4.000003 12,5.666663 11,4.66667 13,-5.666663 20.66667,-2.66666 0.66666,-1 0.66666,-1 0.66666,-1 -3.66666,-1.333343 -3.66666,-1.333343 -3.66666,-1.333343 -1.66667,-1.33333 -4.66667,-5.66666 -11.66667,-8 0,0 0,0 0,0 z m -1.66667,-22.33333 c 1,6.33333 4.33334,9.66667 5,11 0.66667,3.66667 0.66667,3.66667 0.66667,3.66667 0.66667,-0.33334 0.66667,-0.33334 0.66667,-0.33334 -1.33334,-7.33333 8,-7.66666 5.66666,-17.66666 -1,-3.66667 -2.33333,-8 -3,-11.66667 -1.33333,-5.33333 1,-6.66667 2,-10.33333 -2.66666,1.66666 -12.33333,20 -11,25.33333 0,0 0,0 0,0 z m 21,37.000003 c 7,0.66667 11,4.66667 12.66667,5.33333 4,1 4,1 4,1 -0.66667,1 -0.66667,1 -0.66667,1 -8,-1.66666 -8.33333,9 -20,6 -4,-0.66666 -9,-2.33333 -13,-3.33333 -5.66666,-1.33333 -7.66666,1.33333 -11.66666,2.33333 1.66666,-3 22.66666,-13.66666 28.66666,-12.33333 z m -2.66666,-13.000003 c -3.66667,-3.66667 -5.33334,-24.33333 -3.66667,-27 1,3.33333 -0.33333,6 3.66667,9.66667 2.66666,2.66666 6,5.66666 8.66666,8.33333 7.33334,7.33333 -0.66666,12.33333 4.66667,18.000003 -0.66667,0.66667 -0.66667,0.66667 -0.66667,0.66667 -2.66666,-2.66667 -2.66666,-2.66667 -2.66666,-2.66667 -1.33334,-1.000003 -6,-2.000003 -10,-7.000003 z m 25.66666,22.666673 c -5.66666,-0.33334 -24.66666,14.33333 -25.66666,17.66666 3.66666,-2 5,-4.66666 11,-4.66666 4,0.33333 9.66666,1 13.66666,1.33333 11.66667,0.33333 10,-10 18.33333,-9.66667 0.33334,-1 0.33334,-1 0.33334,-1 -4,-0.33333 -4,-0.33333 -4,-0.33333 -2,-0.33333 -6.33334,-3.66667 -13.66667,-3.33333 z"
   style="fill:#848484;fill-opacity:1;fill-rule:evenodd;stroke:none" /><path
   inkscape:label="frontoutline"
   style="display:inline;opacity:1;fill:none;fill-opacity:1;fill-rule:nonzero;stroke:#cb0000;stroke-width:5;stroke-miterlimit:4;stroke-dasharray:none;stroke-opacity:1"
   d="m -139.56091,-100.47842 c -73,0 -132.33333,55.33334 -132.33333,123.666672 0,68.66666 59.33333,123.999998 132.33333,123.999998 73,0 132.33333,-55.333338 132.33333,-123.999998 0,-68.333332 -59.33333,-123.666672 -132.33333,-123.666672 z m 33.66667,181.666672 c -7.33334,-10.66667 -19.66667,-17.33334 -33.66667,-17.33334 -13.66667,0 -26,6.66667 -33.66666,17.33334 -20,-13.66667 -33.66667,-38.66667 -33.66667,-67.33334 0,-42.666662 30.33333,-77.666662 67.33333,-77.666662 37.33333,0 67.66667,35 67.66667,77.666662 0,28.66667 -13.66667,53.66667 -34,67.33334 z"
   id="path1131-7" />
	
</g>


<g
   style="display:inline;opacity:0.998"
   inkscape:label="Edge.Cuts"
   inkscape:groupmode="layer"
   id="layer1"
   transform="translate(272.39424,100.97842)">
	
<path
   id="path1131"
   d="m -139.56091,-100.47842 c -73,0 -132.33333,55.333334 -132.33333,123.666667 0,68.66666 59.33333,124.000003 132.33333,124.000003 72.999998,0 132.3333276,-55.333343 132.3333276,-124.000003 0,-68.333333 -59.3333296,-123.666667 -132.3333276,-123.666667 z m 33.66667,181.666667 c -7.33334,-10.66667 -19.66667,-17.33334 -33.66667,-17.33334 -13.66667,0 -26,6.66667 -33.66666,17.33334 -20,-13.66667 -33.66667,-38.66667 -33.66667,-67.33334 0,-42.666659 30.33333,-77.666659 67.33333,-77.666659 37.33333,0 67.666668,35 67.666668,77.666659 0,28.66667 -13.66667,53.66667 -33.999998,67.33334 z"
   style="display:inline;fill:none;fill-opacity:1;fill-rule:nonzero;stroke:#000000;stroke-opacity:1"
   inkscape:label="path1131" /></g>
</svg>
