<?xml version="1.0" encoding="UTF-8" standalone="no"?>
<svg
   xmlns:dc="http://purl.org/dc/elements/1.1/"
   xmlns:cc="http://creativecommons.org/ns#"
   xmlns:rdf="http://www.w3.org/1999/02/22-rdf-syntax-ns#"
   xmlns:svg="http://www.w3.org/2000/svg"
   xmlns="http://www.w3.org/2000/svg"
   xmlns:sodipodi="http://sodipodi.sourceforge.net/DTD/sodipodi-0.dtd"
   xmlns:inkscape="http://www.inkscape.org/namespaces/inkscape"
   id="Layer_1"
   data-name="Layer 1"
   viewBox="0 0 259.20002 223.05444"
   version="1.1"
   sodipodi:docname="wreath.svg"
   inkscape:version="0.92.5 (2060ec1f9f, 2020-04-08)"
   width="68.580002mm"
   height="59.016487mm">
  <metadata
     id="metadata11">
    <rdf:RDF>
      <cc:Work
         rdf:about="">
        <dc:format>image/svg+xml</dc:format>
        <dc:type
           rdf:resource="http://purl.org/dc/dcmitype/StillImage" />
        <dc:title></dc:title>
      </cc:Work>
    </rdf:RDF>
  </metadata>
  <sodipodi:namedview
     pagecolor="#ffffff"
     bordercolor="#666666"
     borderopacity="1"
     objecttolerance="10"
     gridtolerance="10"
     guidetolerance="10"
     inkscape:pageopacity="0"
     inkscape:pageshadow="2"
     inkscape:window-width="3840"
     inkscape:window-height="2047"
     id="namedview9"
     showgrid="false"
     inkscape:zoom="8.0428792"
     inkscape:cx="111.67596"
     inkscape:cy="141.36729"
     inkscape:window-x="0"
     inkscape:window-y="0"
     inkscape:window-maximized="1"
     inkscape:current-layer="layer2"
     fit-margin-top="0"
     fit-margin-left="0"
     fit-margin-right="0"
     fit-margin-bottom="0"
     units="mm" />
  <defs
     id="defs4">
    <style
       id="style2">
      .cls-1 {
        fill: #333;
        fill-rule: evenodd;
        stroke-width: 0px;
      }
    </style>
  </defs>
  <g
     inkscape:groupmode="layer"
     id="layer1"
     inkscape:label="F.SilkS"
     style="display:inline"
     transform="translate(0,151.97444)">
    <g
       id="g1125">
      <path
         id="path932"
         inkscape:connector-curvature="0"
         d="m 97.86283,40.268432 c 5.89875,4.2358 11.38961,4.01617 13.05256,4.6437 l 3.63965,2.13359 0.28239,-1.03542 c -7.18518,-4.45544 -0.0627,-12.26815 -10.26007,-18.19828 -3.51415,-2.03947 -8.3461,-4.5182 -11.86026,-6.52628 -5.23985,-3.01213 -4.73782,-6.21252 -6.87142,-9.66392 -0.90991,3.3259 6.9028,25.63448 12.01715,28.64661 z"
         style="fill:#333333;fill-rule:evenodd;stroke-width:0px" />
      <path
         id="path930"
         inkscape:connector-curvature="0"
         d="m 75.52287,-134.30956 c 1.00404,-1.8512 1.00404,-4.45544 4.89471,-5.52223 1.91395,-0.5334 4.51819,-1.09817 6.43215,-1.63157 2.85525,-0.78441 3.01213,-2.35323 4.45544,-3.73379 0,1.69432 -6.46353,11.29549 -9.25602,12.11127 -3.3259,1.25506 -5.89876,0.50202 -6.77729,0.59615 l -0.18826,0.0628 c -4.95747,3.51415 -9.56979,7.46757 -13.80559,11.82888 -17.47663,18.07277 -28.30147,43.016961 -28.30147,70.565392 0,27.54843 10.82484,52.5240103 28.30147,70.5654 17.47662,18.0414 41.63641,29.21138 68.33768,29.21138 26.70127,0 50.82968,-11.16998 68.33768,-29.21138 17.47663,-18.0728097 28.30147,-43.01701 28.30147,-70.56544 0,-27.548431 -10.82484,-52.523992 -28.30147,-70.565392 -4.23581,-4.36131 -8.84813,-8.31473 -13.77422,-11.82888 l -0.25101,-0.0628 c -0.87853,-0.0941 -3.45139,0.69028 -6.77729,-0.59615 -2.79249,-0.78441 -9.2874,-10.41695 -9.25602,-12.11127 1.44331,1.38056 1.60019,2.94938 4.45544,3.73379 1.91396,0.5334 4.5182,1.09817 6.43215,1.63157 3.85929,1.06679 3.89067,3.60828 4.86334,5.49086 5.49086,3.76516 10.6052,8.06372 15.21753,12.8643 17.72763,18.29241 28.67798,43.550362 28.67798,71.475312 0,27.92495 -10.95035,53.1829103 -28.67798,71.47532 -17.72764,18.29241 -42.20119,29.61927 -69.2476,29.61927 -27.04641,0 -51.51996,-11.32686 -69.2476,-29.61927 -17.72763,-18.2924097 -28.67798,-43.55037 -28.67798,-71.47532 0,-27.92495 10.95035,-53.182902 28.67798,-71.475312 4.61232,-4.7692 9.69529,-9.06776 15.15478,-12.80155 v 0 z"
         style="fill:#333333;fill-rule:evenodd;stroke-width:0px" />
      <path
         id="path928"
         inkscape:connector-curvature="0"
         d="m 115.43358,69.636692 c -2.00809,0 -3.67103,-1.63157 -3.67103,-3.67103 0,-2.03947 1.63157,-3.67104 3.67103,-3.67104 2.03946,0 3.67103,1.63157 3.67103,3.67104 0,2.03946 -1.63157,3.67103 -3.67103,3.67103 z"
         style="fill:#333333;fill-rule:evenodd;stroke-width:0px" />
      <path
         id="path926"
         inkscape:connector-curvature="0"
         d="m 143.67229,69.636692 c -2.00808,0 -3.67103,-1.63157 -3.67103,-3.67103 0,-2.03947 1.63157,-3.67104 3.67103,-3.67104 2.03946,0 3.67103,1.63157 3.67103,3.67104 0,2.03946 -1.63157,3.67103 -3.67103,3.67103 z"
         style="fill:#333333;fill-rule:evenodd;stroke-width:0px" />
      <path
         id="path924"
         inkscape:connector-curvature="0"
         d="m 129.30192,71.080002 c -3.54552,0 -6.40077,-2.88662 -6.40077,-6.40078 0,-3.51415 2.88662,-6.40077 6.40077,-6.40077 3.51416,0 6.40078,2.88662 6.40078,6.40077 0,3.51416 -2.88662,6.40078 -6.40078,6.40078 z"
         style="fill:#333333;fill-rule:evenodd;stroke-width:0px" />
      <path
         id="path922"
         inkscape:connector-curvature="0"
         d="m 184.14778,-127.31263 c -2.54149,-1.44331 -14.02523,0.69028 -15.21753,1.88258 2.00809,0.0627 3.23176,-0.94129 5.836,0.56477 1.7257,1.00405 3.95342,2.47874 5.7105,3.48278 5.02021,2.918 6.65178,-2.03946 10.29144,-0.0628 l 0.37651,-0.37652 -1.81982,-1.03542 c -0.69028,-0.56477 -1.94534,-2.94938 -5.20848,-4.45544 v 0 z"
         style="fill:#333333;fill-rule:evenodd;stroke-width:0px" />
      <path
         id="path920"
         inkscape:connector-curvature="0"
         d="m 186.18724,-136.72553 c 1.94533,2.98075 4.51819,3.85929 5.14572,4.42406 l 1.28643,1.63157 0.31377,-0.43927 c -2.51011,-3.29451 2.13359,-5.61636 -1.47469,-10.13456 -1.25506,-1.56882 -3.04351,-3.54553 -4.26719,-5.08297 -1.88258,-2.29047 -1.06679,-3.67103 -1.44331,-5.64774 -1.00404,1.34918 -1.34918,12.95843 0.43927,15.21753 v 0 z"
         style="fill:#333333;fill-rule:evenodd;stroke-width:0px" />
      <path
         id="path918"
         inkscape:connector-curvature="0"
         d="m 199.80458,-126.30859 c 2.19634,3.3259 5.02021,4.29856 5.77324,4.95747 l 1.44332,1.81982 0.34514,-0.47064 c -2.7925,-3.67103 2.3846,-6.27527 -1.66295,-11.29549 -1.38056,-1.7257 -3.38865,-3.95342 -4.76921,-5.64774 -2.07083,-2.57286 -1.1923,-4.1103 -1.60019,-6.27527 -1.12955,1.50607 -1.50606,14.43312 0.50202,16.97461 v 0 z"
         style="fill:#333333;fill-rule:evenodd;stroke-width:0px" />
      <path
         id="path916"
         inkscape:connector-curvature="0"
         d="m 199.45944,-114.51108 c -2.51011,-2.54148 -16.69222,-3.85929 -18.51205,-2.85525 2.35323,0.75303 4.14168,0 6.65179,2.60424 1.69432,1.75707 3.82791,4.23581 5.55361,5.99288 4.95746,5.08297 8.50299,-0.18826 12.14265,3.35727 l 0.56477,-0.31376 -1.78845,-1.81983 c -0.62753,-0.87854 -1.28643,-4.1103 -4.6437,-6.96555 v 0 z"
         style="fill:#333333;fill-rule:evenodd;stroke-width:0px" />
      <path
         id="path914"
         inkscape:connector-curvature="0"
         d="m 211.4452,-116.14265 c 1.25505,4.42406 4.04755,6.52628 4.61232,7.49895 l 0.94129,2.5101 0.5334,-0.40789 c -1.78845,-5.05159 4.83196,-6.08701 2.16497,-13.05256 -0.94129,-2.41598 -2.35323,-5.55361 -3.26314,-7.93821 -1.38056,-3.57691 0.12551,-4.95747 0.43927,-7.49895 -1.78845,1.28643 -6.77729,15.40578 -5.42811,18.91994 v 0 z"
         style="fill:#333333;fill-rule:evenodd;stroke-width:0px" />
      <path
         id="path912"
         inkscape:connector-curvature="0"
         d="m 219.79131,-102.55669 c -0.0628,5.239837 2.32185,8.377477 2.63561,9.632528 l 0.25101,3.043505 0.72166,-0.282387 c -0.34514,-6.055639 7.21656,-5.114339 6.4949,-13.554576 -0.25101,-2.918 -0.78441,-6.77729 -1.03542,-9.69529 -0.37651,-4.32993 1.7257,-5.36535 2.88663,-8.03234 -2.35323,0.81578 -12.29953,14.65275 -11.95439,18.91993 v 0 z"
         style="fill:#333333;fill-rule:evenodd;stroke-width:0px" />
      <path
         id="path910"
         inkscape:connector-curvature="0"
         d="m 213.04539,-95.183263 c -2.07083,-3.63965 -17.72763,-9.475647 -20.08086,-8.879497 2.41598,1.56882 4.67508,1.22368 6.74592,4.988837 1.38056,2.51011 3.0435,5.961503 4.45544,8.471611 4.04755,7.279312 9.69529,2.353226 12.7388,7.498946 l 0.75303,-0.188258 -1.47469,-2.604236 c -0.43927,-1.192302 -0.21964,-5.051592 -3.10626,-9.287403 v 0 z"
         style="fill:#333333;fill-rule:evenodd;stroke-width:0px" />
      <path
         id="path908"
         inkscape:connector-curvature="0"
         d="m 228.48256,-86.868527 c -1.25506,5.020215 0.28238,8.597119 0.31376,9.852173 l -0.47064,2.949376 0.75303,-0.09413 c 1.09817,-5.898753 8.0951,-3.231764 9.38153,-11.483743 0.43926,-2.855247 0.81578,-6.683162 1.25505,-9.538412 0.6589,-4.26718 2.88662,-4.73782 4.6437,-7.059667 -2.44736,0.25101 -15.18615,11.201348 -15.87643,15.343025 v 0 z"
         style="fill:#333333;fill-rule:evenodd;stroke-width:0px" />
      <path
         id="path906"
         inkscape:connector-curvature="0"
         d="m 220.57572,-70.458698 c -1.03542,-4.078925 -14.62138,-13.774216 -17.06873,-13.805592 1.94533,2.133591 4.20443,2.415978 5.20847,6.557656 0.69028,2.792495 1.38056,6.557656 2.07084,9.350151 2.00808,8.095098 8.72262,4.800581 10.32282,10.542453 h 0.75303 c 0,0 -0.72166,-2.886624 -0.72166,-2.886624 -0.0941,-1.255054 1.12955,-4.926087 -0.56477,-9.78942 v 0 z"
         style="fill:#333333;fill-rule:evenodd;stroke-width:0px" />
      <path
         id="path904"
         inkscape:connector-curvature="0"
         d="m 232.938,-69.674289 c 1.56882,-3.922044 16.37845,-11.860259 18.79443,-11.577872 -2.19634,1.882581 -4.48682,1.882581 -6.05563,5.898753 -1.03542,2.698366 -2.22773,6.338022 -3.26314,9.036388 -3.04351,7.81271 -9.31878,3.671032 -11.64063,9.193269 l -0.75303,-0.06275 1.09817,-2.792497 c 0.25101,-1.223678 -0.50202,-5.082968 1.81983,-9.695291 z"
         style="fill:#333333;fill-rule:evenodd;stroke-width:0px" />
      <path
         id="path902"
         inkscape:connector-curvature="0"
         d="m 236.13839,-51.632888 c -3.76517,4.14168 -4.11031,8.37748 -4.73783,9.60116 l -1.94534,2.60424 0.78441,0.31376 c 4.04755,-5.08297 9.41291,1.03542 14.87239,-6.21252 1.88258,-2.5101 4.20443,-5.99288 6.05564,-8.502986 2.79249,-3.733785 5.17709,-3.074882 8.03234,-4.392689 -2.47873,-1.004043 -20.26912,2.980753 -23.03024,6.620405 v 0 z"
         style="fill:#333333;fill-rule:evenodd;stroke-width:0px" />
      <path
         id="path900"
         inkscape:connector-curvature="0"
         d="m 222.17591,-44.604588 c 0.0628,-4.54957 -11.35824,-18.512045 -13.89972,-19.233701 1.41194,2.761119 3.70241,3.702409 3.5769,8.346108 -0.0941,3.106259 -0.40789,7.216563 -0.47064,10.322823 -0.18826,9.00501 7.74996,7.49894 7.78133,13.93109 l 0.78441,0.25101 0.0627,-3.23176 c 0.25101,-1.34918 2.57286,-4.83196 2.16497,-10.38557 z"
         style="fill:#333333;fill-rule:evenodd;stroke-width:0px" />
      <path
         id="path898"
         inkscape:connector-curvature="0"
         d="m 232.18497,-30.830368 c -4.32994,4.7692 -4.70646,9.60116 -5.42811,11.01309 l -2.2591,2.98076 0.87854,0.34514 c 4.6437,-5.836 10.79346,1.1923 17.06873,-7.15381 2.16497,-2.88663 4.83196,-6.87142 6.96555,-9.75804 3.20039,-4.29856 5.96151,-3.51416 9.22465,-5.0516 -2.82388,-1.16092 -23.24988,3.42002 -26.41889,7.59308 v 0 z"
         style="fill:#333333;fill-rule:evenodd;stroke-width:0px" />
      <path
         id="path896"
         inkscape:connector-curvature="0"
         d="m 216.81056,-15.016698 c 1.03542,-4.58094 -7.53033,-21.21041 -9.94631,-22.46546 0.84717,3.10626 2.94938,4.54957 1.81983,9.19327 -0.75303,3.10626 -1.94533,7.21656 -2.69836,10.35419 -2.1336,9.0677698 6.24389,9.2560298 4.89471,15.7823103 l 0.75303,0.40789 0.75303,-3.2631405 c 0.5334,-1.31781 3.63966,-4.36131 4.42407,-10.0404298 v 0 z"
         style="fill:#333333;fill-rule:evenodd;stroke-width:0px" />
      <path
         id="path894"
         inkscape:connector-curvature="0"
         d="m 226.34897,-10.812268 c -5.1771,3.7965398 -6.52628,8.4716203 -7.49895,9.7266703 l -2.7925,2.47873 0.81579,0.50203 c 5.71049,-4.80059 10.35419,3.32589 18.13553,-3.63966 2.69836,-2.4159805 6.08701,-5.8046205 8.754,-8.1892305 3.98479,-3.5768998 6.52628,-2.2904698 10.04043,-3.1062598 -2.54149,-1.69432 -23.46951,-1.25505 -27.42293,2.22772 v 0 z"
         style="fill:#333333;fill-rule:evenodd;stroke-width:0px" />
      <path
         id="path892"
         inkscape:connector-curvature="0"
         d="m 218.59901,7.5115223 c -5.77325,2.8238697 -7.93822,7.1851797 -9.13052,8.2205997 l -3.20039,1.94534 0.69028,0.6589 c 6.46353,-3.70241 9.60117,5.11435 18.48067,-0.31376 3.07488,-1.88258 7.0283,-4.61233 10.07181,-6.49491 4.54957,-2.8238697 6.84004,-1.06679 10.41695,-1.28643 -2.19635,-2.1335897 -22.87336,-5.4280997 -27.36018,-2.7297397 v 0 z"
         style="fill:#333333;fill-rule:evenodd;stroke-width:0px" />
      <path
         id="path890"
         inkscape:connector-curvature="0"
         d="m 204.22864,24.109612 c -6.93417,2.19634 -10.04043,6.74591 -11.5465,7.6872 l -3.89066,1.63157 0.6589,0.84716 c 7.84409,-3.10625 9.88355,7.27932 20.70839,2.66699 3.73379,-1.60019 8.59712,-4.01617 12.3309,-5.61636 5.55362,-2.3846 7.81272,-0.0941 11.86026,0.28239 -2.10221,-2.72975 -24.69318,-9.8208 -30.15267,-7.49895 v 0 z"
         style="fill:#333333;fill-rule:evenodd;stroke-width:0px" />
      <path
         id="path888"
         inkscape:connector-curvature="0"
         d="m 206.07985,1.5813923 c 1.16092,-5.08297 -8.37749,-23.5950103 -11.07586,-25.0069503 0.94129,3.4514 3.29452,5.0516 2.03947,10.26007 -0.81579,3.4513998 -2.19635,8.0323398 -3.01213,11.5464903 -2.3846,10.10319 6.93417,10.29145 5.42811,17.5707597 l 0.84716,0.47064 0.84716,-3.60828 c 0.59615,-1.44331 4.04755,-4.8319497 4.92609,-11.1699797 v 0 z"
         style="fill:#333333;fill-rule:evenodd;stroke-width:0px" />
      <path
         id="path886"
         inkscape:connector-curvature="0"
         d="m 185.1832,38.636862 c -7.18519,0.97266 -11.04448,4.89471 -12.70742,5.58499 l -4.1103,0.94129 0.50202,0.94129 c 8.25198,-1.69433 8.47161,8.8795 19.95535,6.18114 3.95342,-0.94129 9.1619,-2.44736 13.11532,-3.38865 5.89875,-1.41193 7.71858,1.25506 11.64062,2.32185 -1.60019,-3.0435 -22.62234,-13.89972 -28.39559,-12.58191 z"
         style="fill:#333333;fill-rule:evenodd;stroke-width:0px" />
      <path
         id="path884"
         inkscape:connector-curvature="0"
         d="m 187.72468,25.772552 c 3.67103,-3.73378 5.3026,-24.4735497 3.76516,-27.1091597 -1.03542,3.42002 0.12551,6.02426 -3.67103,9.78942 -2.54148,2.5101097 -6.08701,5.6791197 -8.62849,8.2205997 -7.34207,7.34207 0.47064,12.42504 -4.6437,17.82177 l 0.47064,0.81578 2.63561,-2.63561 c 1.28643,-0.90991 5.99289,-1.97671 10.07181,-6.9028 z"
         style="fill:#333333;fill-rule:evenodd;stroke-width:0px" />
      <path
         id="path882"
         inkscape:connector-curvature="0"
         d="m 161.93332,48.457652 c -7.24793,-0.31376 -11.73475,2.85525 -13.49182,3.23177 l -4.20443,0.18826 0.34514,1.03541 c 8.44023,-0.18825 6.74591,10.26007 18.51204,9.66392 4.07892,-0.21963 9.47566,-0.78441 13.49183,-1.00404 6.05563,-0.31377 7.34206,2.63561 11.04447,4.36131 -1.03542,-3.29452 -19.7671,-17.72764 -25.69723,-17.47663 z"
         style="fill:#333333;fill-rule:evenodd;stroke-width:0px" />
      <path
         id="path880"
         inkscape:connector-curvature="0"
         d="m 161.27442,40.268432 c 5.11435,-3.01213 12.92706,-25.32071 12.01714,-28.64661 -2.13359,3.4514 -1.63157,6.65179 -6.87142,9.66392 -3.51415,2.00808 -8.34611,4.48681 -11.86026,6.52628 -10.19731,5.93013 -3.07488,13.77421 -10.26006,18.19828 l 0.28239,1.03542 3.63965,-2.13359 c 1.66295,-0.62753 7.15381,-0.43927 13.05256,-4.6437 z"
         style="fill:#333333;fill-rule:evenodd;stroke-width:0px" />
      <path
         id="path878"
         inkscape:connector-curvature="0"
         d="m 74.98947,-127.31263 c -3.26314,1.50606 -4.5182,3.89067 -5.20847,4.45544 l -1.81983,1.03542 0.37651,0.37652 c 3.67104,-1.97671 5.27123,2.98075 10.29144,0.0628 1.75708,-1.00404 3.9848,-2.47873 5.7105,-3.48278 2.57286,-1.50606 3.82791,-0.50202 5.836,-0.56477 -1.1923,-1.22368 -12.67604,-3.32589 -15.21753,-1.88258 v 0 z"
         style="fill:#333333;fill-rule:evenodd;stroke-width:0px" />
      <path
         id="path876"
         inkscape:connector-curvature="0"
         d="m 72.95001,-136.72553 c 1.81982,-2.29048 1.44331,-13.86835 0.43926,-15.21753 -0.37651,1.94533 0.43927,3.32589 -1.44331,5.64774 -1.25505,1.53744 -3.0435,3.51415 -4.26718,5.08297 -3.60828,4.51819 1.00404,6.84004 -1.50606,10.13456 l 0.31376,0.43927 1.28643,-1.63157 c 0.6589,-0.59615 3.20039,-1.44331 5.14572,-4.42407 v 0 z"
         style="fill:#333333;fill-rule:evenodd;stroke-width:0px" />
      <path
         id="path874"
         inkscape:connector-curvature="0"
         d="m 59.33267,-126.30859 c 2.00809,-2.54148 1.63157,-15.46854 0.50202,-16.9746 -0.40789,2.19634 0.47065,3.70241 -1.60019,6.27527 -1.38056,1.7257 -3.38865,3.92204 -4.76921,5.64774 -4.04754,5.02022 1.12955,7.62445 -1.66294,11.29549 l 0.34514,0.47064 1.44331,-1.81983 c 0.72166,-0.6589 3.5769,-1.63157 5.74187,-4.95746 v 0 z"
         style="fill:#333333;fill-rule:evenodd;stroke-width:0px" />
      <path
         id="path872"
         inkscape:connector-curvature="0"
         d="m 59.67781,-114.51108 c -3.32589,2.85525 -4.01617,6.08701 -4.6437,6.96555 l -1.78845,1.81983 0.56477,0.31376 c 3.63966,-3.54553 7.18519,1.75708 12.14265,-3.35727 1.7257,-1.75707 3.85929,-4.23581 5.55361,-5.99288 2.54149,-2.63561 4.32994,-1.85121 6.65179,-2.60424 -1.81983,-1.03542 -16.00194,0.28239 -18.51204,2.85525 v 0 z"
         style="fill:#333333;fill-rule:evenodd;stroke-width:0px" />
      <path
         id="path870"
         inkscape:connector-curvature="0"
         d="m 47.69205,-116.14265 c 1.3178,-3.51415 -3.67104,-17.63351 -5.42811,-18.91994 0.31376,2.57286 1.8512,3.92205 0.43927,7.49895 -0.94129,2.3846 -2.35323,5.52224 -3.26314,7.93821 -2.66699,6.96555 3.92204,8.03235 2.16497,13.05257 l 0.53339,0.40789 0.94129,-2.51011 c 0.56478,-0.97267 3.35727,-3.04351 4.61233,-7.49895 v 0 z"
         style="fill:#333333;fill-rule:evenodd;stroke-width:0px" />
      <path
         id="path868"
         inkscape:connector-curvature="0"
         d="m 39.34594,-102.55669 c 0.34514,-4.26719 -9.60116,-18.10415 -11.95439,-18.91994 1.16093,2.69837 3.26314,3.70241 2.88662,8.03235 -0.25101,2.918 -0.81578,6.77729 -1.03541,9.69529 -0.72166,8.471607 6.84004,7.498937 6.4949,13.55457 l 0.72165,0.282387 0.25102,-3.043505 c 0.31376,-1.255055 2.69836,-4.392685 2.63561,-9.632532 v 0 z"
         style="fill:#333333;fill-rule:evenodd;stroke-width:0px" />
      <path
         id="path866"
         inkscape:connector-curvature="0"
         d="m 46.09185,-95.183263 c -2.918,4.235811 -2.69836,8.095101 -3.10626,9.287403 l -1.44331,2.604236 0.75304,0.188258 c 3.0435,-5.114344 8.65987,-0.219634 12.73879,-7.498946 1.41194,-2.510108 3.07488,-5.961501 4.45544,-8.471611 2.07084,-3.733777 4.32994,-3.420017 6.74592,-4.988837 -2.35323,-0.59615 -18.0414,5.208467 -20.08086,8.879497 v 0 z"
         style="fill:#333333;fill-rule:evenodd;stroke-width:0px" />
      <path
         id="path864"
         inkscape:connector-curvature="0"
         d="m 30.65469,-86.868527 c -0.6589,-4.173054 -13.42908,-15.123393 -15.87643,-15.343023 1.75707,2.321837 3.9848,2.792487 4.6437,7.059667 0.43927,2.855248 0.81578,6.683162 1.25505,9.53841 1.28643,8.283355 8.31473,5.616366 9.41291,11.483743 l 0.75303,0.09413 -0.47065,-2.949377 c 0,-1.255054 1.56882,-4.831957 0.28239,-9.852173 v 0 z"
         style="fill:#333333;fill-rule:evenodd;stroke-width:0px" />
      <path
         id="path862"
         inkscape:connector-curvature="0"
         d="m 38.56153,-70.458698 c -1.69432,4.831957 -0.47065,8.534366 -0.56477,9.78942 l -0.72166,2.886624 h 0.75303 c 1.6002,-5.773248 8.31473,-2.510108 10.32282,-10.573829 0.69028,-2.792495 1.41194,-6.557656 2.07084,-9.350151 1.00404,-4.141678 3.26314,-4.424065 5.20847,-6.557656 -2.44735,0 -16.03331,9.758043 -17.06873,13.805592 z"
         style="fill:#333333;fill-rule:evenodd;stroke-width:0px" />
      <path
         id="path860"
         inkscape:connector-curvature="0"
         d="m 26.19925,-69.674289 c 2.32185,4.612323 1.56882,8.440237 1.81983,9.695291 l 1.09817,2.792495 -0.75303,0.06275 c -2.32185,-5.522237 -8.59712,-1.411935 -11.64063,-9.193269 -1.06679,-2.698366 -2.25909,-6.369399 -3.26314,-9.036388 -1.53744,-4.016172 -3.82791,-4.016172 -6.02426,-5.898753 2.44736,-0.282387 17.25699,7.655828 18.79444,11.577872 v 0 z"
         style="fill:#333333;fill-rule:evenodd;stroke-width:0px" />
      <path
         id="path858"
         inkscape:connector-curvature="0"
         d="M 23.03024,-51.632888 C 20.26912,-55.272546 2.47873,-59.257342 0,-58.253299 c 2.85525,1.317807 5.23985,0.658903 8.03234,4.392688 1.85121,2.510103 4.17306,5.992883 6.05564,8.502993 5.45948,7.27931 10.82484,1.12955 14.87239,6.21251 l 0.78441,-0.31376 -1.94534,-2.60424 c -0.62752,-1.22367 -0.97266,-5.4281 -4.73783,-9.60116 v 0 z"
         style="fill:#333333;fill-rule:evenodd;stroke-width:0px" />
      <path
         id="path856"
         inkscape:connector-curvature="0"
         d="m 36.99271,-44.604588 c -0.40789,5.55361 1.91396,9.03639 2.16497,10.38557 l 0.0627,3.23176 0.78441,-0.25101 c 0.0314,-6.43215 7.96959,-4.92608 7.78134,-13.93109 -0.0628,-3.10626 -0.37652,-7.247941 -0.47065,-10.322823 -0.1255,-4.612323 2.16497,-5.553613 3.5769,-8.346108 -2.54148,0.721656 -13.99385,14.715511 -13.89972,19.233701 z"
         style="fill:#333333;fill-rule:evenodd;stroke-width:0px" />
      <path
         id="path854"
         inkscape:connector-curvature="0"
         d="m 26.98366,-30.830368 c -3.16901,-4.17306 -23.59501,-8.75401 -26.41889,-7.59308 3.26314,1.50606 6.02426,0.75303 9.22465,5.05159 2.13359,2.88663 4.80058,6.87142 6.96555,9.75805 6.27527,8.3461 12.42503,1.28643 17.06873,7.1538 l 0.87854,-0.34514 -2.2591,-2.98075 c -0.72165,-1.41194 -1.09817,-6.24389 -5.42811,-11.0131 v 0 z"
         style="fill:#333333;fill-rule:evenodd;stroke-width:0px" />
      <path
         id="path852"
         inkscape:connector-curvature="0"
         d="m 42.35807,-15.016698 c 0.78441,5.7104998 3.89067,8.7540098 4.42406,10.0404398 l 0.75304,3.2631405 0.75303,-0.4079 c -1.34919,-6.5262805 7.0283,-6.7145405 4.89471,-15.7823003 -0.72166,-3.13763 -1.94534,-7.24794 -2.69837,-10.35419 -1.09817,-4.6437 1.00404,-6.08702 1.81983,-9.19327 -2.41598,1.28643 -11.0131,17.91589 -9.9463,22.46546 v 0 z"
         style="fill:#333333;fill-rule:evenodd;stroke-width:0px" />
      <path
         id="path850"
         inkscape:connector-curvature="0"
         d="m 32.81966,-10.812268 c -3.95342,-3.48277 -24.88144,-3.92204 -27.42293,-2.22772 3.51415,0.84717 6.05564,-0.47064 10.04043,3.1062598 2.66699,2.38461 6.05564,5.80463 8.754,8.1892305 7.78134,6.93417 12.42504,-1.1923 18.13553,3.63966 l 0.81579,-0.50203 -2.7925,-2.47873 c -1.00404,-1.22367 -2.32185,-5.8987505 -7.49895,-9.7266703 v 0 z"
         style="fill:#333333;fill-rule:evenodd;stroke-width:0px" />
      <path
         id="path848"
         inkscape:connector-curvature="0"
         d="m 40.56962,7.5115223 c -4.48682,-2.72974 -25.16383,0.59615 -27.36018,2.7297397 3.60828,0.18826 5.86738,-1.5374397 10.41695,1.28643 3.0435,1.88258 6.99692,4.61233 10.07181,6.49491 8.91088,5.42811 12.01714,-3.38865 18.48066,0.31376 l 0.69028,-0.6589 -3.20038,-1.94534 c -1.1923,-1.03542 -3.35727,-5.39673 -9.13052,-8.2205997 v 0 z"
         style="fill:#333333;fill-rule:evenodd;stroke-width:0px" />
      <path
         id="path846"
         inkscape:connector-curvature="0"
         d="m 54.93998,24.109612 c -5.45948,-2.29047 -28.05045,4.7692 -30.15267,7.49895 4.04755,-0.37652 6.30665,-2.66699 11.86026,-0.28239 3.70241,1.60019 8.56575,4.01617 12.33091,5.61636 10.85621,4.61233 12.8643,-5.74187 20.70839,-2.66699 l 0.6589,-0.84716 -3.89067,-1.63157 c -1.50606,-0.94129 -4.61232,-5.49086 -11.54649,-7.6872 v 0 z"
         style="fill:#333333;fill-rule:evenodd;stroke-width:0px" />
      <path
         id="path844"
         inkscape:connector-curvature="0"
         d="m 53.08878,1.5813923 c 0.87854,6.33802 4.32993,9.7266697 4.92609,11.1699797 l 0.84716,3.60828 0.84716,-0.47064 C 58.20312,8.6096923 67.5219,8.4214423 65.16867,-1.6817477 64.35289,-5.1645182 63.0037,-9.7454682 62.15654,-13.228238 c -1.22367,-5.1771 1.09817,-6.77729 2.03947,-10.26007 -2.69837,1.41194 -12.23678,19.9239798 -11.07586,25.0069503 v 0 z"
         style="fill:#333333;fill-rule:evenodd;stroke-width:0px" />
      <path
         id="path842"
         inkscape:connector-curvature="0"
         d="m 73.98543,38.636862 c 7.18518,0.97266 11.04447,4.89471 12.70742,5.58499 l 4.1103,0.94129 -0.50202,0.94129 c -8.25198,-1.69433 -8.47162,8.8795 -19.95536,6.18114 -3.95342,-0.94129 -9.16189,-2.44736 -13.11531,-3.38865 -5.89876,-1.41193 -7.71858,1.25506 -11.64063,2.32185 1.6002,-3.0435 22.62235,-13.89972 28.3956,-12.58191 z"
         style="fill:#333333;fill-rule:evenodd;stroke-width:0px" />
      <path
         id="path840"
         inkscape:connector-curvature="0"
         d="m 71.44394,25.772552 c -3.67103,-3.73378 -5.3026,-24.4735497 -3.76516,-27.1091597 1.03542,3.42002 -0.12551,6.02426 3.67103,9.78942 2.54149,2.5101097 6.08701,5.6791197 8.6285,8.2205997 7.34206,7.34207 -0.47065,12.42504 4.6437,17.82177 l -0.47065,0.81578 -2.63561,-2.63561 c -1.28643,-0.90991 -5.99288,-1.97671 -10.07181,-6.9028 z"
         style="fill:#333333;fill-rule:evenodd;stroke-width:0px" />
      <path
         id="path6"
         inkscape:connector-curvature="0"
         d="m 97.2353,48.457652 c -5.93013,-0.25101 -24.66181,14.18211 -25.69723,17.47663 3.67103,-1.75708 4.98884,-4.70645 11.04447,-4.36131 4.04755,0.21963 9.44428,0.78441 13.49183,1.00404 11.76613,0.59615 10.10319,-9.85217 18.51205,-9.66392 l 0.34514,-1.03541 -4.20443,-0.18826 c -1.75708,-0.37652 -6.2439,-3.54553 -13.49183,-3.23177 z"
         style="fill:#333333;fill-rule:evenodd;stroke-width:0px" />
    </g>
  </g>
  <g
     inkscape:groupmode="layer"
     id="layer2"
     inkscape:label="Edge.Cuts" />
</svg>
