<?xml version="1.0" encoding="UTF-8"?>
<svg id="svg18" xmlns="http://www.w3.org/2000/svg" viewBox="0 0 199.6 186.8">
  <defs>
    <style>
      .cls-1 {
        fill: #60615a;
        stroke-width: 0px;
      }

      .cls-2 {
        fill: none;
        stroke: #000;
      }
    </style>
  </defs>
  <g id="layer2">
    <g id="g1005">
      <path id="path955" class="cls-1" d="m75.8,163.1c-4.4-.2-18.5,10.6-19.3,13.1,2.8-1.3,3.7-3.5,8.3-3.3,3,.2,7.1.6,10.1.8,8.8.4,7.6-7.4,13.9-7.2l.3-.8-3.2-.1c-1.3-.3-4.7-2.7-10.1-2.5Z"/>
      <path id="path953" class="cls-1" d="m56.5,146.1c-2.8-2.8-4-18.4-2.8-20.3.8,2.6-.1,4.5,2.8,7.3,1.9,1.9,4.6,4.3,6.5,6.2,5.5,5.5-.4,9.3,3.5,13.4l-.4.6-2-2c-1.1-.7-4.6-1.5-7.6-5.2Z"/>
      <path id="path951" class="cls-1" d="m58.4,155.7c5.4.7,8.3,3.7,9.5,4.2l3.1.7-.4.7c-6.2-1.3-6.4,6.7-15,4.6-3-.7-6.9-1.8-9.8-2.5-4.4-1.1-5.8.9-8.7,1.7,1.2-2.2,16.9-10.3,21.3-9.4Z"/>
      <path id="path949" class="cls-1" d="m42.7,128c.7,4.8,3.2,7.3,3.7,8.4l.6,2.7.6-.4c-1.1-5.5,5.9-5.6,4.1-13.2-.6-2.6-1.6-6-2.3-8.7-.9-3.9.8-5.1,1.5-7.7-1.9,1.1-9.1,15-8.2,18.9Z"/>
      <path id="path947" class="cls-1" d="m44.1,144.9c-4.1-1.7-21,3.6-22.6,5.6,3-.3,4.7-2,8.9-.2,2.8,1.2,6.4,3,9.2,4.2,8.1,3.5,9.6-4.3,15.5-2l.5-.6-2.9-1.2c-1.1-.8-3.5-4.2-8.6-5.8Z"/>
      <path id="path945" class="cls-1" d="m33.3,132.4c-3.4-2-18.9.4-20.5,2,2.7.1,4.4-1.2,7.8,1,2.3,1.4,5.2,3.5,7.6,4.9,6.7,4.1,9-2.5,13.9.2l.5-.5-2.4-1.5c-1-.7-2.6-4-6.9-6.1h0Z"/>
      <path id="path943" class="cls-1" d="m27.5,118.7c-3-2.6-18.7-2.9-20.6-1.7,2.6.6,4.5-.4,7.5,2.3,2,1.8,4.5,4.4,6.6,6.1,5.8,5.2,9.3-.9,13.6,2.7l.6-.4-2.1-1.9c-.7-.8-1.7-4.3-5.6-7.1Z"/>
      <path id="path941" class="cls-1" d="m34.6,115.5c.6,4.3,2.9,6.6,3.3,7.5l.6,2.4.6-.3c-1-4.9,5.3-5,3.7-11.8-.5-2.4-1.5-5.4-2-7.8-.8-3.5.8-4.6,1.4-6.9-1.9,1-8.4,13.5-7.6,16.9Z"/>
      <path id="path939" class="cls-1" d="m23.1,103.6c-2.4-3.1-17.7-6.6-19.8-5.7,2.4,1.1,4.5.6,6.9,3.8,1.6,2.2,3.6,5.2,5.2,7.3,4.7,6.3,9.3,1,12.8,5.4l.7-.3-1.7-2.2c-.5-1-.8-4.7-4.1-8.3Z"/>
      <path id="path937" class="cls-1" d="m30.6,93.3c-.3,4.2,1.4,6.8,1.6,7.8v2.4l.6-.2c0-4.8,6-3.7,5.8-10.4,0-2.3-.3-5.4-.4-7.7-.1-3.5,1.6-4.2,2.7-6.3-1.8.5-10.4,11-10.3,14.4Z"/>
      <path id="path935" class="cls-1" d="m20.1,88c-2.1-2.7-15.4-5.7-17.3-5,2.1,1,3.9.5,6,3.3,1.4,1.9,3.1,4.5,4.5,6.4,4.1,5.5,8.1.8,11.2,4.7l.6-.2-1.5-2c-.4-.9-.6-4-3.5-7.2Z"/>
      <path id="path933" class="cls-1" d="m22.5,74.5c1.7,3.5,1.2,6.3,1.4,7.3l.8,2.1h-.6c-1.7-4.1-6.4-1.1-8.7-6.9-.8-2-1.7-4.8-2.4-6.8-1.2-3-2.9-3-4.5-4.4,1.8-.2,12.9,5.8,14,8.7Z"/>
      <path id="path931" class="cls-1" d="m31.8,73.9c-1.3,3.6-.4,6.4-.4,7.3l-.5,2.2h.6c1.2-4.3,6.2-1.9,7.7-7.9.5-2.1,1.1-4.9,1.6-7,.8-3.1,2.4-3.3,3.9-4.9-1.9,0-12.1,7.3-12.9,10.3Z"/>
      <path id="path929" class="cls-1" d="m25.9,61.6c-.5-3.1-10.1-11.3-11.9-11.5,1.3,1.7,3,2.1,3.5,5.3.3,2.1.6,5,.9,7.2,1,6.2,6.2,4.2,7.1,8.6l.6.1-.4-2.2c-.1-1,1.1-3.7.2-7.5Z"/>
      <path id="path927" class="cls-1" d="m37.4,55.4c-2.2,3.2-2,6.1-2.3,7l-1.1,2,.6.1c2.3-3.8,6.5-.2,9.6-5.6,1.1-1.9,2.3-4.5,3.3-6.4,1.6-2.8,3.2-2.6,5.1-3.7-1.8-.5-13.6,3.8-15.2,6.6Z"/>
      <path id="path925" class="cls-1" d="m32.4,49.9c.3-3.2-7.2-13.6-9-14.2.9,2,2.4,2.8,2.2,6-.2,2.2-.6,5.1-.8,7.3-.5,6.4,5.1,5.6,4.9,10.2l.5.2.2-2.3c.2-1,2-3.3,2-7.2Z"/>
      <path id="path923" class="cls-1" d="m38.6,39.7c1-2.6-2.8-13.2-4.1-14.2.2,1.9,1.4,2.9.3,5.6-.7,1.8-1.8,4.1-2.4,6-2,5.2,2.9,6,1.6,9.8l.4.3.7-1.9c.5-.8,2.6-2.3,3.5-5.6Z"/>
      <path id="path921" class="cls-1" d="m47.6,40.9c-2.5,2.1-3,4.6-3.5,5.2l-1.3,1.4.4.2c2.7-2.7,5.4,1.3,9.1-2.5,1.3-1.3,2.9-3.2,4.2-4.5,1.9-2,3.2-1.4,5-2-1.4-.7-12,.3-13.9,2.2Z"/>
      <path id="path919" class="cls-1" d="m47.4,32c1.5-1.9,1.2-11.6.4-12.7-.3,1.6.4,2.8-1.2,4.7-1,1.3-2.5,2.9-3.6,4.2-3,3.8.8,5.7-1.2,8.5l.3.4,1.1-1.4c.4-.5,2.5-1.2,4.2-3.7Z"/>
      <path id="path917" class="cls-1" d="m57.6,24.2c1.4-1.7,1.1-10.4.3-11.4-.3,1.5.3,2.5-1.1,4.2-.9,1.2-2.3,2.6-3.2,3.8-2.7,3.4.8,5.1-1.1,7.6l.2.3,1-1.2c.5-.4,2.4-1,3.9-3.3Z"/>
      <path id="path915" class="cls-1" d="m59.1,31.3c-2.4,1.1-3.4,2.9-3.9,3.3l-1.4.8.3.3c2.8-1.5,4,2.2,7.7,0,1.3-.8,3-1.9,4.3-2.6,1.9-1.1,2.9-.4,4.4-.4-.9-.9-9.5-2.5-11.4-1.4Z"/>
      <path id="path913" class="cls-1" d="m123.8,157c3.8-2.3,9.7-19,9-21.5-1.6,2.6-1.2,5-5.2,7.2-2.6,1.5-6.3,3.4-8.9,4.9-7.6,4.4-2.3,10.3-7.7,13.6l.2.8,2.7-1.6c1.4-.4,5.5-.3,9.9-3.4Z"/>
      <path id="path911" class="cls-1" d="m124.3,163.1c-5.4-.2-8.8,2.1-10.1,2.4l-3.2.1.3.8c6.3-.1,5.1,7.7,13.9,7.2,3.1-.2,7.1-.6,10.1-.8,4.5-.2,5.5,2,8.3,3.3-.8-2.3-14.8-13.2-19.3-13Z"/>
      <path id="path909" class="cls-1" d="m143.7,146.1c2.8-2.8,4-18.4,2.8-20.3-.8,2.6.1,4.5-2.8,7.3-1.9,1.9-4.6,4.3-6.5,6.2-5.5,5.5.4,9.3-3.5,13.4l.4.6,2-2c1-.7,4.5-1.5,7.6-5.2Z"/>
      <path id="path907" class="cls-1" d="m141.8,155.7c-5.4.7-8.3,3.7-9.5,4.2l-3.1.7.4.7c6.2-1.3,6.4,6.7,15,4.6,3-.7,6.9-1.8,9.8-2.5,4.4-1.1,5.8.9,8.7,1.7-1.2-2.2-17-10.3-21.3-9.4h0Z"/>
      <path id="path905" class="cls-1" d="m157.4,128c.9-3.8-6.3-17.7-8.3-18.8.7,2.6,2.5,3.8,1.5,7.7-.6,2.6-1.6,6-2.3,8.7-1.8,7.6,5.2,7.7,4.1,13.2l.6.4.6-2.7c.6-1.2,3.2-3.7,3.8-8.5h0Z"/>
      <path id="path903" class="cls-1" d="m156,144.9c-5.2,1.6-7.5,5.1-8.7,5.8l-2.9,1.2.5.6c5.9-2.3,7.4,5.5,15.5,2,2.8-1.2,6.4-3,9.2-4.2,4.2-1.8,5.9-.1,8.9.2-1.4-2.1-18.4-7.4-22.5-5.6Z"/>
      <path id="path901" class="cls-1" d="m166.8,132.4c-4.3,2.1-6,5.4-6.8,6.2l-2.4,1.5.5.5c4.8-2.8,7.2,3.8,13.9-.2,2.3-1.4,5.3-3.5,7.6-4.9,3.4-2.1,5.1-.8,7.8-1-1.7-1.6-17.2-4.1-20.6-2.1Z"/>
      <path id="path899" class="cls-1" d="m172.6,118.7c-3.9,2.8-4.9,6.4-5.6,7.3l-2.1,1.9.6.4c4.3-3.6,7.8,2.5,13.6-2.7,2-1.8,4.6-4.4,6.6-6.1,3-2.7,4.9-1.7,7.5-2.3-1.9-1.5-17.6-1.2-20.6,1.5Z"/>
      <path id="path897" class="cls-1" d="m165.5,115.5c.8-3.4-5.6-15.9-7.5-16.8.6,2.3,2.2,3.4,1.4,6.9-.6,2.3-1.5,5.4-2,7.8-1.6,6.8,4.7,6.9,3.7,11.8l.6.3.6-2.4c.3-1.1,2.6-3.4,3.2-7.6h0Z"/>
      <path id="path895" class="cls-1" d="m177,103.6c-3.2,3.6-3.5,7.2-4.1,8.3l-1.7,2.2.7.3c3.5-4.4,8.1.9,12.8-5.4,1.6-2.2,3.6-5.2,5.2-7.3,2.4-3.2,4.5-2.6,6.9-3.8-2.1-.8-17.4,2.6-19.8,5.7h0Z"/>
      <path id="path893" class="cls-1" d="m169.5,93.3c0-3.4-8.5-13.9-10.4-14.4,1.1,2.1,2.8,2.8,2.7,6.3-.1,2.3-.3,5.4-.4,7.7-.1,6.8,5.8,5.6,5.8,10.4l.6.2v-2.4c.3-1,2-3.6,1.7-7.8h0Z"/>
      <path id="path891" class="cls-1" d="m180,88c-2.8,3.1-3.1,6.3-3.6,7.2l-1.5,2,.6.2c3-3.8,7.1.8,11.2-4.7,1.4-1.9,3.2-4.5,4.5-6.4,2.1-2.8,3.9-2.3,6-3.3-1.8-.6-15.1,2.3-17.2,5Z"/>
      <path id="path889" class="cls-1" d="m177.6,74.5c1.2-2.9,12.3-8.9,14.1-8.7-1.6,1.4-3.4,1.4-4.5,4.4-.8,2-1.7,4.8-2.4,6.8-2.3,5.9-7,2.8-8.7,6.9h-.6l.8-2.1c.1-.9-.5-3.8,1.3-7.3Z"/>
      <path id="path887" class="cls-1" d="m168.3,73.9c-.8-3-11-10.3-12.8-10.3,1.5,1.6,3.2,1.8,3.9,4.9.5,2.1,1,4.9,1.6,7,1.5,6.1,6.5,3.6,7.7,7.9h.6l-.5-2.2c-.1-.9.8-3.6-.5-7.3Z"/>
      <path id="path885" class="cls-1" d="m174.2,61.6c-.9,3.8.2,6.4.2,7.4l-.4,2.2.6-.1c.8-4.4,6.1-2.4,7-8.6.3-2.1.6-5,.9-7.2.5-3.2,2.2-3.6,3.5-5.3-1.7.3-11.3,8.5-11.8,11.6Z"/>
      <path id="path883" class="cls-1" d="m162.7,55.4c-1.6-2.7-13.3-7.1-15.1-6.7,1.8,1.2,3.5.9,5.1,3.7,1,1.9,2.3,4.5,3.3,6.4,3,5.5,7.3,1.8,9.6,5.6l.6-.1-1.1-2c-.4-.8-.3-3.7-2.4-6.9h0Z"/>
      <path id="path881" class="cls-1" d="m167.7,49.9c0,3.9,1.7,6.3,2,7.2l.2,2.3.5-.2c-.3-4.5,5.4-3.8,4.9-10.2-.2-2.2-.6-5.1-.8-7.3-.3-3.2,1.3-4,2.2-6-1.8.6-9.2,11-9,14.2h0Z"/>
      <path id="path879" class="cls-1" d="m161.5,39.7c.9,3.3,3,4.9,3.5,5.6l.7,1.9.4-.3c-1.3-3.8,3.6-4.6,1.6-9.8-.7-1.8-1.8-4.2-2.4-6-1-2.7.1-3.7.3-5.6-1.4,1-5.2,11.6-4.1,14.2Z"/>
      <path id="path877" class="cls-1" d="m152.5,40.9c-1.9-1.9-12.5-2.9-13.9-2.1,1.8.6,3.1,0,5,2,1.3,1.3,2.9,3.2,4.2,4.5,3.7,3.8,6.4-.1,9.1,2.5l.4-.2-1.3-1.4c-.5-.7-1-3.2-3.5-5.3Z"/>
      <path id="path875" class="cls-1" d="m152.7,32c1.6,2.5,3.8,3.2,4.3,3.7l1.1,1.4.3-.4c-2.1-2.8,1.8-4.7-1.2-8.5-1-1.3-2.5-3-3.6-4.2-1.6-1.9-.9-3.1-1.2-4.7-.9,1.2-1.2,10.9.3,12.7h0Z"/>
      <path id="path873" class="cls-1" d="m142.5,24.2c1.5,2.2,3.4,2.9,3.9,3.3l1,1.2.2-.3c-1.9-2.5,1.6-4.2-1.1-7.6-.9-1.2-2.3-2.7-3.2-3.8-1.4-1.7-.8-2.8-1.1-4.2-.8,1-1,9.7.3,11.4h0Z"/>
      <path id="path871" class="cls-1" d="m141,31.3c-1.9-1.1-10.5.5-11.4,1.4,1.5,0,2.4-.7,4.4.4,1.3.8,3,1.9,4.3,2.6,3.8,2.2,5-1.5,7.7,0l.3-.3-1.4-.8c-.6-.4-1.5-2.2-3.9-3.3h0Z"/>
      <path id="path869" class="cls-1" d="m99.8,180.1c-2.7,0-4.8-2.2-4.8-4.8s2.2-4.8,4.8-4.8,4.8,2.2,4.8,4.8-2.1,4.8-4.8,4.8Z"/>
      <path id="path867" class="cls-1" d="m110.6,179c-1.5,0-2.8-1.2-2.8-2.8,0-1.5,1.2-2.8,2.8-2.8,1.5,0,2.8,1.2,2.8,2.8s-1.2,2.8-2.8,2.8Z"/>
      <path id="path865" class="cls-1" d="m89.4,179c-1.5,0-2.8-1.2-2.8-2.8,0-1.5,1.2-2.8,2.8-2.8s2.8,1.2,2.8,2.8-1.2,2.8-2.8,2.8Z"/>
      <path id="path863" class="cls-1" d="m59.5,26c.8-1.4.8-3.3,3.7-4.1,1.4-.4,3.4-.8,4.8-1.2,2.1-.6,2.3-1.8,3.3-2.8,0,1.3-4.8,8.5-6.9,9.1-2.5.9-4.4.4-5.1.4h-.1c-3.7,2.6-7.2,5.6-10.4,8.9-13.1,13.6-21.2,32.3-21.2,52.9s8.1,39.4,21.2,52.9c13.1,13.5,31.2,21.9,51.3,21.9s38.1-8.4,51.3-21.9c13.1-13.6,21.2-32.3,21.2-52.9s-8.1-39.4-21.2-52.9c-3.2-3.3-6.6-6.2-10.3-8.9h-.2c-.7-.1-2.6.5-5.1-.4-2.1-.6-7-7.8-6.9-9.1,1.1,1,1.2,2.2,3.3,2.8,1.4.4,3.4.8,4.8,1.2,2.9.8,2.9,2.7,3.6,4.1,4.1,2.8,8,6,11.4,9.6,13.3,13.8,21.5,32.7,21.5,53.7s-8.2,39.9-21.5,53.6c-13.3,13.7-31.7,22.2-51.9,22.2-20.2,0-38.6-8.5-51.9-22.2-13.3-13.7-21.5-32.7-21.5-53.6s8.2-39.9,21.5-53.6c3.4-3.6,7.2-6.8,11.3-9.7Z"/>
      <path id="path8" class="cls-1" d="m76.3,157c4.4,3.2,8.5,3,9.8,3.5l2.7,1.6.2-.8c-5.4-3.3,0-9.2-7.7-13.6-2.6-1.5-6.3-3.4-8.9-4.9-3.9-2.3-3.6-4.7-5.2-7.2-.6,2.4,5.2,19.1,9.1,21.4Z"/>
    </g>
  </g>
  <g id="layer1">
    <path id="path6" class="cls-2" d="m99.8.5C45,.5.5,42.1.5,93.4s44.4,92.9,99.3,92.9,99.3-41.6,99.3-92.9S154.7.5,99.8.5Zm21.3,138.6c-5.2-5.9-12.8-9.6-21.3-9.6s-16.1,3.7-21.3,9.6c-17.3-9.2-29.4-29.4-29.4-52.8,0-32.1,22.7-58.2,50.6-58.2s50.6,26,50.6,58.2c.2,23.4-11.8,43.6-29.2,52.8h0Z"/>
  </g>
</svg>